<svg xmlns="http://www.w3.org/2000/svg" xmlns:xlink="http://www.w3.org/1999/xlink" width="256" height="256" preserveAspectRatio="xMidYMid" version="1.1" viewBox="0 0 256 256"><g><polygon fill="#C9EBEC" points="168.361 123.454 168.361 94.633 157.634 100.027 168.361 123.467"/><polygon fill="#C9EBEC" points="194.96 103.449 239.479 58.942 168.361 94.633"/><polygon fill="#C9EBEC" points="168.361 129.299 159.369 153.488 159.394 153.463 179.774 133.083 192.35 158.121 255.288 158.121"/><polygon fill="#00868C" points="168.361 94.633 168.361 123.454 255.288 123.454 194.96 103.449 168.361 94.633"/><polygon fill="#00B3BB" points="168.361 123.454 168.361 123.467 168.361 129.299 255.288 158.121 255.288 123.454"/><polygon fill="#C9EBEC" points="131.946 168.273 160.606 168.273 151.789 194.872 196.346 239.441 155.273 157.584"/><polygon fill="#00868C" points="159.394 153.463 220.847 214.928 192.35 158.121 179.774 133.083"/><polygon fill="#00B3BB" points="159.394 153.463 159.369 153.488 155.273 157.584 196.346 239.441 220.847 214.928"/><polygon fill="#C9EBEC" points="101.751 159.269 101.776 159.307 122.156 179.687 97.118 192.25 97.118 255.188 125.952 168.273"/><polygon fill="#00868C" points="131.946 168.273 131.784 168.273 131.784 255.188 151.789 194.872 160.606 168.273"/><polygon fill="#00B3BB" points="131.784 168.273 125.952 168.273 97.118 255.188 131.784 255.188"/><polygon fill="#C9EBEC" points="60.316 151.739 15.81 196.258 86.915 160.568"/><polygon fill="#C9EBEC" points="86.915 131.734 86.915 160.568 97.655 155.173 86.915 131.734"/><polygon fill="#00868C" points="101.776 159.307 40.311 220.759 97.118 192.25 122.156 179.687"/><polygon fill="#00B3BB" points="101.776 159.307 101.751 159.269 97.655 155.173 86.915 160.568 86.915 160.568 86.915 160.568 15.81 196.258 40.311 220.759"/><polygon fill="#C9EBEC" points="95.919 101.701 95.894 101.738 75.501 122.118 62.939 97.08 0 97.08 86.915 125.902"/><polygon fill="#00868C" points="86.915 160.568 86.915 160.568 86.915 131.734 0 131.734 60.316 151.739 86.915 160.568"/><polygon fill="#00B3BB" points="86.915 131.734 86.915 131.734 86.915 125.902 0 97.08 0 131.734"/><polygon fill="#C9EBEC" points="123.342 86.928 94.67 86.928 103.499 60.329 58.942 15.76 100.015 97.605"/><polygon fill="#00868C" points="95.894 101.738 34.429 40.273 62.939 97.08 75.501 122.118"/><polygon fill="#00B3BB" points="95.894 101.738 95.919 101.701 100.015 97.605 58.942 15.76 34.429 40.273"/><polygon fill="#C9EBEC" points="153.538 95.919 153.5 95.894 133.12 75.514 158.158 62.951 158.158 .012 129.336 86.928"/><polygon fill="#00868C" points="123.342 86.928 123.504 86.928 123.504 .012 103.499 60.329 94.67 86.928"/><polygon fill="#00B3BB" points="123.504 86.928 129.336 86.928 158.158 .012 123.504 .012"/><polygon fill="#00868C" points="153.5 95.894 214.965 34.441 158.158 62.951 133.12 75.514"/><polygon fill="#00B3BB" points="153.5 95.894 153.538 95.919 157.634 100.027 168.361 94.633 168.361 94.633 239.479 58.942 214.965 34.441"/></g></svg>