<svg xmlns="http://www.w3.org/2000/svg" xmlns:xlink="http://www.w3.org/1999/xlink" width="256" height="259" preserveAspectRatio="xMidYMid" version="1.1" viewBox="0 0 256 259"><defs><linearGradient id="linearGradient-1" x1="100.012%" x2="0%" y1="49.991%" y2="49.991%"><stop offset="0%" stop-color="#37BDA6"/><stop offset="100%" stop-color="#8AD3B8"/></linearGradient><linearGradient id="linearGradient-2" x1="100.012%" x2="0%" y1="49.998%" y2="49.998%"><stop offset="50%" stop-color="#4BB6AD"/><stop offset="100%" stop-color="#78BBC1"/></linearGradient><linearGradient id="linearGradient-3" x1="-.018%" x2="100.023%" y1="49.998%" y2="49.998%"><stop offset="0%" stop-color="#4379A7"/><stop offset="100%" stop-color="#7CC9B8"/></linearGradient></defs><g><path fill="#13A049" d="M127.693413,36.8670659 L127.693413,110.447904 L191.54012,73.5808383 L191.54012,0 L127.693413,36.8670659 L127.693413,36.8670659 Z" opacity=".5"/><path fill="#A2CC39" d="M127.693413,36.8670659 L63.8467066,0 L63.8467066,73.7341317 L127.693413,110.601198 L127.693413,36.8670659 L127.693413,36.8670659 Z" opacity=".5"/><path fill="url(#linearGradient-1)" d="M191.54012,0 L127.693413,36.8670659 L63.8467066,0 L0,36.8670659 L127.693413,110.601198 L255.31018,36.8670659 L191.54012,0 L191.54012,0 Z" opacity=".9"/><path fill="url(#linearGradient-2)" d="M127.693413,110.601198 L0,36.8670659 L0,110.601198 L63.8467066,147.468263 L63.8467066,221.125749 L127.693413,257.992814 L191.54012,221.125749 L191.54012,147.468263 L255.31018,110.601198 L255.31018,36.8670659 L127.693413,110.601198 L127.693413,110.601198 Z"/><path fill="url(#linearGradient-3)" d="M127.693413,110.601198 L127.693413,257.992814 L191.54012,221.125749 L191.54012,147.468263 L255.31018,110.601198 L255.31018,36.8670659 L127.693413,110.601198 L127.693413,110.601198 Z"/><path fill="#231F20" d="M127.693413,184.258683 L127.693413,257.992814 L191.54012,221.125749 L127.693413,184.258683 L127.693413,184.258683 Z" opacity=".05"/><path fill="#231F20" d="M127.693413,258.146108 L127.693413,184.411976 L63.8467066,221.279042 L127.693413,258.146108 L127.693413,258.146108 Z" opacity=".1"/><path fill="#231F20" d="M63.8467066,73.7341317 L0,110.601198 L63.8467066,147.468263 L127.693413,110.601198 L63.8467066,73.7341317 L63.8467066,73.7341317 Z" opacity=".05"/><path fill="#231F20" d="M191.54012,73.7341317 L127.693413,110.601198 L191.54012,147.468263 L255.31018,110.601198 L191.54012,73.7341317 L191.54012,73.7341317 Z" opacity=".05"/></g></svg>