<svg xmlns="http://www.w3.org/2000/svg" xmlns:xlink="http://www.w3.org/1999/xlink" width="256" height="309" preserveAspectRatio="xMidYMid" version="1.1" viewBox="0 0 256 309"><g><path fill="#8C3123" d="M128.004,229.29 L235.367,255.33 L235.456,255.156 L235.473,53.859 L235.376,53.686 L128.004,79.682 L128.004,229.29"/><path fill="#E05243" d="M235.367,53.686 L256,64 L256,245.024 L235.367,255.33 L235.367,53.686"/><path fill="#E05243" d="M128.004,229.29 L20.633,255.274 L20.609,255.219 L20.603,53.731 L20.633,53.686 L128.004,79.682 L128.004,229.29"/><path fill="#8C3123" d="M20.633,53.686 L0,64 L0,245.024 L20.633,255.274 L20.633,53.686"/><path fill="#8C3123" d="M128.004,309.015 L128.449,308.455 L128.086,0.074 L128.004,0 L81.173,23.413 L81.173,285.606 L128.004,309.015"/><path fill="#E05243" d="M128.004,309.015 L128.004,0 L174.827,23.413 L174.827,285.606 L128.004,309.015"/></g></svg>