<svg xmlns="http://www.w3.org/2000/svg" xmlns:xlink="http://www.w3.org/1999/xlink" width="256" height="309" preserveAspectRatio="xMidYMid" version="1.1" viewBox="0 0 256 309"><g><polygon fill="#FCBF92" points="0 172.087 127.754 230.897 255.506 172.087 127.754 166.793"/><polygon fill="#9D5025" points="128.147 0 .059 63.881 .059 154.017 153.648 154.017 153.648 12.751"/><polygon fill="#FCBF92" points=".059 217.559 128.221 308.234 256 217.559 127.945 198.926"/><polygon fill="#9D5025" points="128.146 154.017 195.723 154.017 195.723 57.836 175.99 49.943 128.146 63.898"/><polygon fill="#9D5025" points="175.99 154.017 228.223 154.017 228.223 91.632 213.282 87.151 175.99 93.481"/><polygon fill="#9D5025" points="213.282 82.26 213.282 154.017 255.506 154.017 256 81.941 243.174 76.817"/><polygon fill="#F68534" points="128.147 0 128.147 154.017 153.648 154.017 153.648 12.751"/><polygon fill="#F68534" points="195.724 57.836 175.99 49.942 175.99 154.017 195.724 154.017"/><polygon fill="#F68534" points="228.224 91.632 213.282 87.151 213.282 154.017 228.224 154.017"/><polygon fill="#F68534" points="243.174 154.017 256 154.017 256 81.941 243.174 76.817"/><polygon fill="#F68534" points="127.754 184.863 127.754 230.896 255.506 199.052 255.506 172.087"/><polygon fill="#F68534" points="127.754 262.781 127.754 308.234 255.999 244.114 255.999 217.559"/><polygon fill="#9D5025" points=".059 244.391 127.754 308.234 127.754 262.448 .059 217.559"/><polygon fill="#9D5025" points="0 199.051 127.754 230.896 127.754 184.862 0 172.086"/></g></svg>