<svg xmlns="http://www.w3.org/2000/svg" xmlns:xlink="http://www.w3.org/1999/xlink" width="256" height="308" preserveAspectRatio="xMidYMid" version="1.1" viewBox="0 0 256 308"><g><polygon fill="#99BCE3" points=".822 207.604 128 307.2 255.179 207.604 127.996 191.792"/><polygon fill="#19486F" points="128 0 0 99.591 127.175 115.404 256 99.596"/><polygon fill="#1F5B99" points="128 0 0 63.591 0 99.596 128 61.441"/><polygon fill="#1F5B99" points="0 243.609 128 307.2 128 245.758 0 207.609"/><polygon fill="#1F5B99" points="128 200.054 72.533 191.929 72.533 115.892 128 107.892 129.309 110.424 129.171 197.523"/><polygon fill="#5294CF" points="128 0 128 61.441 256 99.596 256 63.591"/><polygon fill="#5294CF" points="128 245.758 128 307.2 256 243.609 256 207.609"/><polygon fill="#5294CF" points="128 200.054 183.467 191.929 183.467 115.892 128 107.892"/></g></svg>