<svg xmlns="http://www.w3.org/2000/svg" xmlns:xlink="http://www.w3.org/1999/xlink" width="256" height="289" preserveAspectRatio="xMidYMid" version="1.1" viewBox="0 0 256 289"><defs><path id="path-1" d="M116.612,3.643 C92.293,17.641 35.707,50.383 11.389,64.38 C4.389,68.414 0,76.006 0,84.073 L0,205.549 C0,213.615 4.389,221.208 11.389,225.241 C35.589,239.239 92.293,271.98 116.612,285.979 C123.729,290.011 132.389,290.011 139.388,285.979 C163.589,271.98 220.293,239.239 244.611,225.241 C251.61,221.208 256,213.615 256,205.549 L256,84.073 C256,75.888 251.61,68.414 244.611,64.38 C220.411,50.383 163.707,17.641 139.388,3.643 C135.829,1.626 131.885,0.618 127.955,0.618 C124.026,0.618 120.111,1.626 116.612,3.643 Z"/></defs><g><mask id="mask-2" fill="#fff"><use xlink:href="#path-1"/></mask><use fill="#00C9FF" fill-rule="nonzero" xlink:href="#path-1"/><g fill-rule="nonzero" mask="url(#mask-2)"><g transform="translate(0.000000, -3.000000)"><polygon fill="#1A67FD" points="66.55 147.811 128 295.859 0 221.716"/><polygon fill="#0DA7FE" points="66.55 147.811 0 73.431 0 221.716"/><polygon fill="#00C9FF" points="66.55 147.811 128 0 256 221.716"/><polygon fill="#05BBFF" points="66.55 147.811 128 0 0 73.431"/><polygon fill="#1A86FD" points="128 295.859 256 221.716 66.55 147.811"/><polygon fill="#05BBFF" points="256 221.716 256 73.905 128 0"/><polygon fill="#1A67FD" fill-opacity=".5" points="155.047 135.355 171.299 151.607 163.232 159.674 155.047 167.859 109.256 213.65 93.005 197.397 138.795 151.607 93.005 105.816 109.256 89.564"/><polygon fill="#D6FFFF" points="171.299 144.252 155.047 128 93.005 190.043 109.257 206.295"/><path fill="#D6FFFF" d="M109.2568,82.328 L93.1228,98.58 L155.1658,160.623 L171.4178,144.37 C171.2988,144.252 109.2568,82.328 109.2568,82.328"/></g></g></g></svg>