<svg xmlns="http://www.w3.org/2000/svg" xmlns:xlink="http://www.w3.org/1999/xlink" width="256" height="256" preserveAspectRatio="xMidYMid" version="1.1" viewBox="0 0 256 256"><defs><linearGradient id="linearGradient-1" x1=".242%" x2="115.269%" y1="50%" y2="50%"><stop offset="0%" stop-color="#ED358C"/><stop offset="16%" stop-color="#E9388C"/><stop offset="30%" stop-color="#DE418C"/><stop offset="43%" stop-color="#CC508C"/><stop offset="57%" stop-color="#B2658D"/><stop offset="70%" stop-color="#90808D"/><stop offset="83%" stop-color="#67A18E"/><stop offset="95%" stop-color="#37C78F"/><stop offset="100%" stop-color="#22D88F"/></linearGradient><linearGradient id="linearGradient-2" x1="66.762%" x2="28.197%" y1="17.457%" y2="151.84%"><stop offset="9%" stop-color="#22D88F"/><stop offset="90%" stop-color="#029DE0"/></linearGradient><linearGradient id="linearGradient-3" x1="10618.142%" x2="-1095.231%" y1="-66066%" y2="-79666%"><stop offset="9%" stop-color="#22D88F"/><stop offset="90%" stop-color="#029DE0"/></linearGradient><linearGradient id="linearGradient-4" x1="5973.425%" x2="9952.73%" y1="-73910%" y2="-74606%"><stop offset="9%" stop-color="#22D88F"/><stop offset="90%" stop-color="#029DE0"/></linearGradient></defs><g><polygon fill="url(#linearGradient-1)" points="98.4 103.6 81.2 110.8 96.8 0 155.6 32.4"/><polygon fill="url(#linearGradient-2)" points="89.2 153.6 97.6 0 23.6 46.4 0 188"/><polygon fill="url(#linearGradient-3)" points="250.8 76.8 218 9.6 155.6 32.4 110 82.8 0 188 83.2 248.8 187.2 154.4"/><polygon fill="url(#linearGradient-4)" points="107.6 109.2 93.2 196.8 151.6 242 215.6 256 256 164.8"/><rect width="160" height="160" x="48" y="48" fill="#000"/><path fill="#FFF" d="M63.2,178 L123.2,178 L123.2,188 L63.2,188 L63.2,178 Z M62,102.4 C61.7957616,93.2154633 65.3544128,84.3465202 71.8504665,77.8504665 C78.3465202,71.3544128 87.2154633,67.7957616 96.4,68 C108.8,68 116.4,72 122.4,78.4 L113.2,89.2 C108,84.4 102.8,81.6 96.4,81.6 C85.2,81.6 77.2,90.8 77.2,102.4 C77.2,113.6 85.2,123.2 96.4,123.2 C104,123.2 108.8,120 114,115.6 L123.2,124.8 C116.4,132 108.8,136.8 96,136.8 C86.9129051,136.800629 78.2036965,133.16364 71.8158356,126.700628 C65.4279746,120.237615 61.893093,111.486466 62,102.4 Z M133.2,68.8 L148,68.8 L148,122.8 L176.8,122.8 L176.8,135.2 L133.2,135.2 L133.2,68.8 Z"/></g></svg>