<svg xmlns="http://www.w3.org/2000/svg" xmlns:xlink="http://www.w3.org/1999/xlink" width="257" height="256" preserveAspectRatio="xMidYMid" version="1.1" viewBox="0 0 257 256"><defs><linearGradient id="linearGradient-1" x1="5.175%" x2="135.025%" y1="30.083%" y2="114.013%"><stop offset="0%" stop-color="#000"/><stop offset="100%" stop-color="#E6E7E8"/></linearGradient><linearGradient id="linearGradient-2" x1="9.889%" x2="104.104%" y1="8.205%" y2="64.487%"><stop offset="0%" stop-color="#939598"/><stop offset="100%" stop-color="#000"/></linearGradient><linearGradient id="linearGradient-3" x1="42.136%" x2="85.222%" y1="42.363%" y2="82.248%"><stop offset="0%" stop-color="#FEFAD8"/><stop offset="100%" stop-color="#FCEE21"/></linearGradient></defs><g><path fill="url(#linearGradient-1)" d="M89.6,219.7 C105.6,219 120.7,215.4 134.6,209.4 C80.9,194.2 41.6,144.8 41.6,86.3 C41.6,70 44.7,54.4 50.2,40.1 C37.9,44 26.9,50.4 19.3,60.2 C7.1,79.8 0,103 0,127.8 C0,152.5 7,175.5 19.1,195.1 C29.9,209.9 66.7,220.7 89.6,219.7 L89.6,219.7 Z"/><path fill="url(#linearGradient-2)" d="M210.3,137.8 C217.6,122.5 221.7,105.6 221.7,87.7 C221.7,63 211.2,32.3 195,19.1 C175.5,7 152.5,0 127.8,0 C81.8,0 40.8,24.3 19,60.7 C38.6,48.6 61.6,41.5 86.3,41.5 C146,41.5 196.2,82.5 210.3,137.8 L210.3,137.8 Z"/><path fill="url(#linearGradient-3)" d="M195,19 C208,37.7 214.5,61.3 214.5,86 C214.5,156.7 157.2,214.1 86.4,214.1 C61.7,214.1 38.6,207.2 19.1,195 C41.5,231.6 82,255.7 128,255.7 C198.7,255.7 256.1,198.4 256.1,127.6 C256,81.6 231.4,39.6 195,19 L195,19 Z"/></g></svg>