<svg xmlns="http://www.w3.org/2000/svg" xmlns:xlink="http://www.w3.org/1999/xlink" width="256" height="256" preserveAspectRatio="xMidYMid" version="1.1" viewBox="0 0 256 256"><defs><filter id="filter-1" width="200%" height="200%" x="-50%" y="-50%" filterUnits="objectBoundingBox"><feMorphology in="SourceAlpha" operator="dilate" radius="1" result="shadowSpreadOuter1"/><feOffset dx="1" dy="1" in="shadowSpreadOuter1" result="shadowOffsetOuter1"/><feGaussianBlur in="shadowOffsetOuter1" result="shadowBlurOuter1" stdDeviation="1.5"/><feColorMatrix in="shadowBlurOuter1" result="shadowMatrixOuter1" type="matrix" values="0 0 0 0 0 0 0 0 0 0 0 0 0 0 0 0 0 0 0.14 0"/><feMerge><feMergeNode in="shadowMatrixOuter1"/><feMergeNode in="SourceGraphic"/></feMerge></filter><filter id="filter-circles" width="200%" height="200%" x="-50%" y="-50%" filterUnits="objectBoundingBox"><feMorphology in="SourceAlpha" operator="dilate" radius="1" result="shadowSpreadOuter1"/><feOffset dx="0" dy="0" in="shadowSpreadOuter1" result="shadowOffsetOuter1"/><feGaussianBlur in="shadowOffsetOuter1" result="shadowBlurOuter1" stdDeviation="2"/><feColorMatrix in="shadowBlurOuter1" result="shadowMatrixOuter1" type="matrix" values="0 0 0 0 0 0 0 0 0 0 0 0 0 0 0 0 0 0 0.17 0"/><feMerge><feMergeNode in="shadowMatrixOuter1"/><feMergeNode in="SourceGraphic"/></feMerge></filter><clipPath id="clip-1"><path d="M19.9202025,28.0114768 L194.68611,0.33107173 C207.413198,-1.68452321 219.364726,6.99868354 221.380321,19.7257722 L249.060456,194.491409 C251.076321,207.218498 242.393114,219.170025 229.666025,221.18562 L54.9001181,248.866025 C42.1732996,250.88162 30.2217722,242.198414 28.2059072,229.471325 L0.525772152,54.7056878 C-1.49009283,41.9785992 7.19311392,30.0270717 19.9202025,28.0114768 L19.9202025,28.0114768 Z"/></clipPath></defs><g><g><path fill="#F5F5F5" d="M19.9202025,28.0114768 L194.68611,0.33107173 C207.413198,-1.68452321 219.364726,6.99868354 221.380321,19.7257722 L249.060456,194.491409 C251.076321,207.218498 242.393114,219.170025 229.666025,221.18562 L54.9001181,248.866025 C42.1732996,250.88162 30.2217722,242.198414 28.2059072,229.471325 L0.525772152,54.7056878 C-1.49009283,41.9785992 7.19311392,30.0270717 19.9202025,28.0114768 L19.9202025,28.0114768 Z" filter="url(#filter-1)" transform="translate(-1.000000, -1.000000) translate(3.240506, 3.240506)"/><g clip-path="url(#clip-1)" transform="translate(-1.000000, -1.000000) translate(3.240506, 3.240506)"><ellipse cx="129.582" cy="128.848" fill="#FBFBFB" filter="url(#filter-circles)" rx="116.671" ry="116.671"/><circle cx="129.582" cy="128.848" r="72.924" fill="#FCFCFC" filter="url(#filter-circles)"/><circle cx="129.582" cy="128.848" r="29.169" fill="#FFF" filter="url(#filter-circles)"/></g></g><path fill="#000" fill-opacity=".2" d="M23.2029531,31.5187006 L197.96886,3.83829554 C210.548714,1.84601823 222.361854,10.4288081 224.354109,23.0085188 L252.034244,197.774159 C254.026782,210.35397 245.444048,222.167147 232.864291,224.159408 L58.0983803,251.839814 C45.518795,253.832091 33.7056529,245.2493 31.7131307,232.669585 L4.03299601,57.9039502 C2.0404587,45.32414 10.6231927,33.5109631 23.2029491,31.5187012 L23.2029531,31.5187006 Z M23.1184686,30.985265 C10.2440979,33.0241851 1.46036036,45.1140209 3.49956125,57.9884399 L31.179696,232.754075 C33.2188812,245.628395 45.3086723,254.412185 58.1828656,252.37325 L232.948776,224.692844 C245.823143,222.653925 254.60688,210.564089 252.567679,197.68967 L224.887545,22.9240346 C222.848633,10.0497161 210.75884,1.26592514 197.884376,3.30485996 L23.1184646,30.9852656 L23.1184686,30.985265 Z" transform="translate(-1.000000, -1.000000)"/></g></svg>