<svg xmlns="http://www.w3.org/2000/svg" xmlns:xlink="http://www.w3.org/1999/xlink" width="256" height="256" preserveAspectRatio="xMidYMid" version="1.1" viewBox="0 0 256 256"><g><path fill="#F36A22" d="M256,74.981 L256,181.019 L252.583,181.352 L129.216,129.53 L128,128 L256,74.981"/><path fill="#F3852F" d="M256,181.019 L181.019,256 L179.874,255.119 L127.565,131.51 L128,128 L256,181.019"/><path fill="#F2C32E" d="M128,128 L125.172,129.943 L74.536,253.841 L74.981,256 L181.019,256 L128,128"/><path fill="#CBDC38" d="M0,181.019 L3.174,178.551 L125.172,127.549 L128,128 L74.981,256 L0,181.019"/><path fill="#B5D66D" d="M0,74.981 L3.174,74.766 L126.245,125.239 L128,128 L0,181.019 L0,74.981"/><path fill="#69C5E5" d="M74.981,0 L0,74.981 L128,128 L128.225,124.744 L80.496,3.026 L74.981,0"/><path fill="#6D9FD5" d="M74.981,0 L181.019,0 L128,128 L74.981,0"/></g></svg>