<svg xmlns="http://www.w3.org/2000/svg" xmlns:xlink="http://www.w3.org/1999/xlink" width="256" height="211" preserveAspectRatio="xMidYMid" version="1.1" viewBox="0 0 256 211"><g><polygon fill="#00832D" points="144.822 105.322 169.779 133.849 203.341 155.294 209.179 105.502 203.341 56.833 169.136 75.672"/><path fill="#0066DA" d="M0.000557021739,150.659712 L0.000557021739,193.089915 C0.000557021739,202.77838 7.86384724,210.643527 17.5541688,210.643527 L59.9843714,210.643527 L68.7704609,178.585069 L59.9843714,150.659712 L30.8744153,141.873623 L0.000557021739,150.659712 Z"/><polygon fill="#E94235" points="59.984 0 0 59.984 30.876 68.749 59.984 59.984 68.61 32.439"/><polygon fill="#2684FC" points=".001 150.679 59.984 150.679 59.984 59.983 .001 59.983"/><path fill="#00AC47" d="M241.658683,25.3977775 L203.341157,56.8342278 L203.341157,155.29339 L241.818362,186.852385 C247.577967,191.364261 256.003849,187.251584 256.003849,179.930462 L256.003849,32.1785888 C256.003849,24.7757699 247.377439,20.6835169 241.658683,25.3977775"/><path fill="#00AC47" d="M144.822496,105.321856 L144.822496,150.659712 L59.9843714,150.659712 L59.9843714,210.643527 L185.787731,210.643527 C195.478053,210.643527 203.341343,202.77838 203.341343,193.089915 L203.341343,155.294133 L144.822496,105.321856 Z"/><path fill="#FFBA00" d="M185.787731,0 L59.9843714,0 L59.9843714,59.9838143 L144.822496,59.9838143 L144.822496,105.32167 L203.341343,56.832928 L203.341343,17.5536117 C203.341343,7.86329022 195.478053,0 185.787731,0"/></g></svg>