<svg xmlns="http://www.w3.org/2000/svg" xmlns:xlink="http://www.w3.org/1999/xlink" width="256" height="239" preserveAspectRatio="xMidYMid" version="1.1" viewBox="0 0 256 239"><g><path fill="#669DF6" d="M224.021661,173.15874 L131.06335,173.15874 C108.582501,173.15874 95.9932253,188.895334 95.9932253,205.643566 C95.9932253,221.09915 106.671629,238.128393 131.06335,238.128393 L224.021661,238.128393 L224.021661,173.15874 Z"/><ellipse cx="224.022" cy="205.587" fill="#1A73E8" rx="31.979" ry="32.485"/><path fill="#669DF6" d="M128.028435,86.5512687 L35.0701245,86.5512687 C12.5892755,86.5512687 0,102.287863 0,119.036096 C0,134.491679 10.6784033,151.520922 35.0701245,151.520922 L128.028435,151.520922 L128.028435,86.5512687 Z"/><ellipse cx="128.028" cy="119.036" fill="#1A73E8" rx="31.979" ry="32.485"/><path fill="#669DF6" d="M224.021661,7.10542736e-15 L131.06335,7.10542736e-15 C108.582501,7.10542736e-15 95.9932253,15.7365943 95.9932253,32.4848268 C95.9932253,47.9404105 106.671629,64.9696537 131.06335,64.9696537 L224.021661,64.9696537 L224.021661,7.10542736e-15 Z"/><ellipse cx="224.022" cy="32.485" fill="#1A73E8" rx="31.979" ry="32.485"/></g></svg>