<svg xmlns="http://www.w3.org/2000/svg" xmlns:xlink="http://www.w3.org/1999/xlink" width="256" height="302" preserveAspectRatio="xMidYMid" version="1.1" viewBox="0 0 256 302"><g><polygon fill="#F25F3F" points="127.888 0 149.919 12.893 138.445 19.694 150.245 12.728 150.245 38.762 44.11 101.237 44.11 200.453 44.214 200.392 127.389 248.744 211.928 199.872 211.928 127.467 127.927 176.99 127.926 176.781 106.191 163.84 106.19 138.187 105.738 137.908 233.399 62.946 255.938 75.424 255.982 75.398 255.982 75.449 256.003 75.46 255.982 75.472 255.982 226.328 128.655 301.503 128.656 301.915 128.308 301.708 127.927 301.933 127.926 301.481 0 225.554 0 74.98 5.623 78.297 .226 74.961"/><polygon fill="#F25F3F" points="150.245 12.728 150.245 38.762 44.11 101.237 44.11 200.617 22.189 213.256 22.189 88.333"/><polygon fill="#FFAA5B" points="149.919 12.893 127.888 0 .226 74.961 22.259 88.58"/><polygon fill="#FFAA5B" points="254.807 200.392 233.017 187.682 127.389 248.744 44.214 200.392 22.109 213.31 105.356 262.643 127.389 276.262"/><polygon fill="#FFAA5B" points="256.003 75.46 233.399 62.946 105.738 137.908 127.771 151.526"/><polygon fill="#EB1919" points="0 74.98 22.312 88.141 22.312 213.21 128.656 275.503 128.656 301.915 0 225.554"/><polyline fill="#EB1919" points="211.928 101.825 211.928 200.197 234.266 212.833 234.266 106.582 211.928 101.825"/><polygon fill="#F25F3F" points="255.982 75.398 255.982 101.432 149.848 164.506 149.848 262.912 255.982 200.342 255.982 226.257 127.927 301.933 127.927 151.003" transform="translate(191.954566, 188.665720) rotate(-180.000000) translate(-191.954566, -188.665720)"/><polygon fill="#EB1919" points="106.191 137.695 106.191 163.84 128.042 176.85 128.042 150.967"/></g></svg>