<svg xmlns="http://www.w3.org/2000/svg" xmlns:xlink="http://www.w3.org/1999/xlink" width="256" height="262" preserveAspectRatio="xMidYMid" version="1.1" viewBox="0 0 256 262"><g><polygon fill="#DC3011" fill-opacity=".65" points="152.228 2.788 255.861 119.843 176.588 254.483 23.872 220.596 8.97 65.076"/><polygon fill="#DC3011" fill-opacity=".65" points="176.152 10.723 253.183 146.766 147.649 261.983 5.316 197.085 23.074 41.865"/><polygon fill="#DC3011" points="127.178 0 252.883 92.951 203.336 241.131 46.911 239.736 0 90.712"/><path fill="#FFF" d="M127.939832,79.215521 C156.512958,79.215521 179.676359,102.378922 179.676359,130.952048 C179.676359,159.525174 156.512958,182.688575 127.939832,182.688575 C99.3667066,182.688575 76.2033054,159.525174 76.2033054,130.952048 C76.2033054,102.378922 99.3667066,79.215521 127.939832,79.215521 Z M127.939832,90.3292934 C105.504575,90.3292934 87.3170778,108.51679 87.3170778,130.952048 C87.3170778,153.387305 105.504575,171.574802 127.939832,171.574802 C150.37509,171.574802 168.562587,153.387305 168.562587,130.952048 C168.562587,108.51679 150.37509,90.3292934 127.939832,90.3292934 Z M146.110467,114.641629 L152.79176,123.655665 L127.939832,154.555018 L103.159952,123.655665 L109.795641,114.641629 L146.110467,114.641629 Z"/></g></svg>