<svg xmlns="http://www.w3.org/2000/svg" xmlns:xlink="http://www.w3.org/1999/xlink" width="256" height="298" preserveAspectRatio="xMidYMid" version="1.1" viewBox="0 0 256 298"><g><polygon fill="#FEEA5F" points="210.741 74.865 127.883 122.742 44.959 74.88 127.874 26.994"/><polygon fill="#E0CC41" points="104.25 258.24 22.011 210.775 22.011 115.122 104.25 162.569"/><polygon fill="#EFDB50" points="150.051 161.649 234.904 112.661 234.904 211.847 150.051 260.818"/><path fill="#C3C2C2" d="M50.4350236,74.8789921 L127.881071,119.579213 L205.26463,74.8648819 L127.872,30.1565984 C110.779801,40.0277165 84.9674751,54.9351811 50.4350236,74.8789921 Z M127.658331,0 L255.987906,74.6985827 L194.749306,122.741921 L126.985071,148.646299 L63.420271,127.884353 L0,74.6885039 L127.658331,0 Z"/><path fill="#B3B3B3" d="M154.239093,253.505008 L230.715565,209.368189 L230.715565,119.973795 L154.239093,164.125732 L154.239093,253.505008 Z M126.928731,148.646299 L255.987906,74.8679055 L255.987906,224.205102 L126.928731,297.911911 L120.381865,224.205102 L126.928731,148.646299 Z"/><path fill="#A5A5A4" d="M101.558526,164.146696 L24.702085,119.805279 L24.702085,209.197657 L101.558526,253.556208 L101.558526,164.146696 Z M1.42108547e-14,74.8679055 L126.985172,148.646602 L126.928731,297.910728 L1.42108547e-14,224.770016 L1.42108547e-14,74.8679055 Z"/></g></svg>