<svg xmlns="http://www.w3.org/2000/svg" xmlns:xlink="http://www.w3.org/1999/xlink" width="512" height="167" preserveAspectRatio="xMidYMid" version="1.1" viewBox="0 0 512 167"><g><path fill="#043558" d="M469.742601,112.197531 L493.719369,112.197531 L493.719369,75.3251029 L469.742601,75.3251029 L469.742601,112.197531 Z M493.586901,60.8395063 L512,60.8395063 L512,129.316873 C512,140.641975 510.807787,142.617284 507.761011,145.646091 C505.376585,148.148148 501.535002,149.333333 494.911586,149.333333 L468.020514,149.333333 L459.675008,140.115226 L459.675008,136.296296 L493.586901,136.296296 L493.586901,126.946502 L470.404941,126.946502 C463.384119,126.946502 459.807475,125.629629 456.893171,122.73251 C453.051593,118.781893 451.461969,110.222222 451.461969,94.0246912 C451.461969,77.8271603 453.316527,68.8724279 457.290577,64.7901235 C460.337348,61.8930039 464.046464,60.7078191 470.669879,60.7078191 L484.446588,60.8395063 L493.586901,69.1358025 L493.586901,60.8395063 Z M276.338832,42.6666667 L298.063639,42.6666667 L266.801112,82.1728397 L299.388323,126.814815 L276.338832,126.814815 L251.567254,91.7860083 L245.738647,91.7860083 L245.738647,126.814815 L226.133333,126.814815 L226.133333,42.6666667 L245.738647,42.6666667 L245.738647,75.3251029 L251.567254,75.3251029 L276.338832,42.6666667 Z M419.404634,81.6460907 L419.404634,75.5884774 L412.781217,75.5884774 C412.648749,75.5884774 412.648749,75.5884774 412.51628,75.5884774 L407.350016,75.5884774 C407.217547,75.5884774 407.217547,75.5884774 407.085079,75.5884774 L396.885017,75.5884774 L396.885017,81.6460907 L396.885017,126.55144 L378.604387,126.55144 L378.604387,60.8395063 L390.659005,60.8395063 L396.885017,60.8395063 L396.885017,62.0246912 L396.885017,69.1358025 L406.025332,60.8395063 L411.324065,60.8395063 C412.118875,60.7078191 413.046154,60.7078191 413.973432,60.7078191 L421.921532,60.7078191 C427.485201,60.7078191 431.061845,61.8930039 433.578748,64.3950618 C436.36058,67.0288064 437.420326,70.452675 437.420326,80.1975309 L437.420326,126.55144 L419.139697,126.55144 L419.139697,82.4362142 C419.404634,82.1728397 419.404634,81.9094652 419.404634,81.6460907 L419.404634,81.6460907 Z M323.100154,112.065844 L347.076923,112.065844 L347.076923,75.1934157 L323.100154,75.1934157 L323.100154,112.065844 Z M323.894964,126.55144 C317.271548,126.55144 313.694903,125.497942 310.913068,122.469136 C306.674081,118.123457 304.951993,112.197531 304.951993,93.6296294 C304.951993,74.9300412 306.674081,69.1358025 310.913068,64.6584363 C313.694903,61.7613167 317.271548,60.7078191 323.894964,60.7078191 L346.149645,60.7078191 C352.773062,60.7078191 356.349707,61.7613167 359.131542,64.6584363 C363.370528,69.1358025 365.092617,74.9300412 365.092617,93.6296294 C365.092617,112.329218 363.370528,118.123457 359.131542,122.469136 C356.217238,125.497942 352.773062,126.55144 346.149645,126.55144 L323.894964,126.55144 Z"/><g><polygon fill="#169FCC" points="59.733 142.374 64.259 136.533 97.745 136.533 115.2 158.834 112.097 166.4 68.913 166.4 69.947 158.834"/><polygon fill="#14B59A" points="69.973 66.334 86.143 38.4 104.985 38.4 189.44 136.498 182.892 166.4 146.678 166.4 148.95 158.007"/><polygon fill="#1BC263" points="89.6 33.092 97.342 18.775 120.569 0 160.368 31.201 155.206 36.469 162.133 46.059 162.133 56.325 142.302 72.533 109.024 33.092"/><polygon fill="#16BDCC" points="28.097 95.479 38.616 95.479 66.047 72.533 102.4 114.773 92.147 130.157 58.59 130.157 35.421 159.621 30.094 166.4 0 166.4 0 130.287"/></g></g></svg>