<svg xmlns="http://www.w3.org/2000/svg" xmlns:xlink="http://www.w3.org/1999/xlink" width="256" height="225" preserveAspectRatio="xMidYMid" version="1.1" viewBox="0 0 256 225"><g><polygon fill="#169FCC" points="80.721 192.398 86.836 184.505 132.089 184.505 155.676 214.641 151.483 224.866 93.126 224.866 94.524 214.641"/><polygon fill="#14B59A" points="94.559 89.641 116.41 51.892 141.872 51.892 256.001 184.458 247.152 224.866 198.214 224.866 201.284 213.523"/><polygon fill="#1BC263" points="121.082 44.72 131.544 25.372 162.932 0 216.714 42.164 209.739 49.283 219.1 62.243 219.1 76.115 192.301 98.018 147.33 44.72"/><polygon fill="#16BDCC" points="37.969 129.026 52.185 129.026 89.254 98.018 138.379 155.1 124.523 175.889 79.177 175.889 47.866 215.705 40.668 224.866 0 224.866 0 176.065"/></g></svg>