<svg xmlns="http://www.w3.org/2000/svg" xmlns:xlink="http://www.w3.org/1999/xlink" width="256" height="229" preserveAspectRatio="xMidYMid" version="1.1" viewBox="0 0 256 229"><defs><linearGradient id="linearGradient-1" x1="-33.923%" x2="157.868%" y1="50.023%" y2="50.023%"><stop offset="0%" stop-color="#000"/><stop offset="28%" stop-color="#2E3192"/><stop offset="59%" stop-color="#3E5AA8"/><stop offset="82%" stop-color="#0093D3"/><stop offset="100%" stop-color="#00AEEF"/></linearGradient><linearGradient id="linearGradient-2" x1="-46.425%" x2="198.911%" y1="49.968%" y2="49.968%"><stop offset="0%" stop-color="#000"/><stop offset="23%" stop-color="#2E3192"/><stop offset="47%" stop-color="#3E5AA8"/><stop offset="78%" stop-color="#0075BE"/><stop offset="100%" stop-color="#00AEEF"/></linearGradient><linearGradient id="linearGradient-3" x1="-60.263%" x2="192.566%" y1="104.922%" y2="-14.678%"><stop offset="0%" stop-color="#F58220"/><stop offset="47%" stop-color="#ED1C24"/><stop offset="100%" stop-color="#AE2538"/></linearGradient><linearGradient id="linearGradient-4" x1="-3.608%" x2="73.591%" y1="95.55%" y2="2.579%"><stop offset="0%" stop-color="#F58220"/><stop offset="38%" stop-color="#ED1C24"/><stop offset="100%" stop-color="#A71C20"/></linearGradient><linearGradient id="linearGradient-5" x1="-9.761%" x2="142.413%" y1="17.45%" y2="97.684%"><stop offset="0%" stop-color="#F58220"/><stop offset="50%" stop-color="#FFCB05"/><stop offset="100%" stop-color="#FFF200"/></linearGradient><linearGradient id="linearGradient-6" x1="28.061%" x2="63.077%" y1="-13.855%" y2="118.708%"><stop offset="0%" stop-color="#FFF200"/><stop offset="100%" stop-color="#F99D1C"/></linearGradient><linearGradient id="linearGradient-7" x1="33.093%" x2="86.963%" y1="77.266%" y2="36.744%"><stop offset="0%" stop-color="#F26522"/><stop offset="100%" stop-color="#C61D23"/></linearGradient><linearGradient id="linearGradient-8" x1="40.935%" x2="67.749%" y1="59.884%" y2="-81.382%"><stop offset="0%" stop-color="#2E3192"/><stop offset="100%" stop-color="#61A2D8"/></linearGradient><linearGradient id="linearGradient-9" x1="40.966%" x2="67.715%" y1="40.117%" y2="181.378%"><stop offset="0%" stop-color="#2E3192"/><stop offset="100%" stop-color="#61A2D8"/></linearGradient></defs><g><path fill="url(#linearGradient-1)" d="M192.9,3.5 L128.9,114.3 L192.9,225.1 C196.5,223 199.5,220 201.7,216.1 L253.5,126.3 C257.9,118.6 257.9,109.8 253.5,102.1 L201.7,12.3 C199.5,8.6 196.5,5.6 192.9,3.5 L192.9,3.5 L192.9,3.5 Z" transform="translate(-1.000000, 0.000000)"/><path fill="url(#linearGradient-2)" d="M128.9,114.4 L170.3,186 C170.7,185.5 171.1,184.9 171.4,184.3 L207,122.7 C210,117.4 210,111.3 207,106.1 L171.4,44.5 C171,43.9 170.7,43.4 170.3,42.8 L128.9,114.4 L128.9,114.4 Z" transform="translate(-1.000000, 0.000000)"/><path fill="url(#linearGradient-3)" d="M128.9,114.4 L96,57.4 L191,2.6 C191.7,2.9 192.3,3.2 192.9,3.6 L128.9,114.4 L128.9,114.4 Z" transform="translate(-1.000000, 0.000000)"/><path fill="url(#linearGradient-4)" d="M56.1,216.3 C38.8,186.4 21.5,156.4 4.3,126.5 C2.5,123.3 1.4,119.9 1.1,116.5 L96.1,171.3 L64.9,225.2 C61.4,223.1 58.3,220.1 56.1,216.3 L56.1,216.3 L56.1,216.3 Z" transform="translate(-1.000000, 0.000000)"/><path fill="url(#linearGradient-5)" d="M96,171.4 L191,226.2 C191.7,225.9 192.3,225.6 192.9,225.2 L128.9,114.4 L96,171.4 L96,171.4 Z" transform="translate(-1.000000, 0.000000)"/><path fill="url(#linearGradient-6)" d="M56.2,12.4 L4.3,102.3 C2.5,105.5 1.4,108.8 1.1,112.2 L96.1,57.4 L64.9,3.5 C61.4,5.6 58.4,8.5 56.2,12.4 L56.2,12.4 L56.2,12.4 Z" transform="translate(-1.000000, 0.000000)"/><path fill="url(#linearGradient-7)" d="M96,57.3 L128.9,114.3 L96,171.3 L1,116.5 C0.9,115.1 0.9,113.6 1,112.2 L96,57.3 L96,57.3 Z" transform="translate(-1.000000, 0.000000)"/><path fill="url(#linearGradient-8)" d="M96,57.3 L191,2.5 C187.9,1.1 184.4,0.3 180.8,0.3 L77.1,0.3 C72.7,0.3 68.5,1.4 65,3.5 L96,57.3 L96,57.3 Z" transform="translate(-1.000000, 0.000000)"/><path fill="url(#linearGradient-9)" d="M64.9,225.2 L96,171.4 L191,226.2 C187.9,227.6 184.4,228.4 180.8,228.4 L77.1,228.4 C72.6,228.4 68.5,227.3 64.9,225.2 L64.9,225.2 L64.9,225.2 Z" transform="translate(-1.000000, 0.000000)"/></g></svg>