<svg xmlns="http://www.w3.org/2000/svg" xmlns:xlink="http://www.w3.org/1999/xlink" width="256" height="329" preserveAspectRatio="xMidYMid" version="1.1" viewBox="0 0 256 329"><g><path fill="#D4EB95" d="M128,72.1702128 L0,135.366866 L0,263.90243 L128,328.170213 L256,263.90243 L256,135.366866 L128,72.1702128 L128,72.1702128 Z"/><path fill="#96DC75" d="M128,51.7446809 L0,114.941334 L0,243.476898 L128,307.744681 L256,243.476898 L256,114.941334 L128,51.7446809 L128,51.7446809 Z"/><path fill="#317342" d="M128,0 L0,63.1966527 L0,191.732217 L128,256 L256,191.732217 L256,63.1966527 L128,0 L128,0 Z" opacity=".553"/><path fill="#34954C" d="M128,122.795274 L0,62.6382979 L0,191.5461 L128,256 L256,191.5461 L256,62.6382979 L128,122.795274 L128,122.795274 Z" opacity=".553"/></g></svg>