<svg xmlns="http://www.w3.org/2000/svg" xmlns:xlink="http://www.w3.org/1999/xlink" width="256" height="239" preserveAspectRatio="xMidYMid" version="1.1" viewBox="0 0 256 239"><defs><linearGradient id="linearGradient-1" x1="50%" x2="50%" y1="0%" y2="100%"><stop offset="0%" stop-color="#4AD8AC"/><stop offset="100%" stop-color="#4076C4"/></linearGradient></defs><g><g transform="translate(0.000000, 44.444444)"><polygon fill="#40A0B4" points="238.218 97.211 255.995 107.474 255.995 11.074 238.218 .808"/><polygon fill="#40A0B4" points="0 11.075 0 107.481 17.778 97.212 17.778 .81"/><polygon fill="#40A0B4" points="78.232 183.514 96.01 193.777 138.339 169.338 120.561 159.075"/><polygon fill="#338090" points="103.118 169.146 120.895 179.411 138.339 169.338 120.561 159.075"/></g><g fill="#45C1A8" transform="translate(87.111111, 133.333333)"><polygon points="81.773 64.855 81.773 44.327 5.227 .132 .001 3.148 .009 3.154 .009 17.648"/><polygon points=".009 62.81 72.889 104.889 90.67 94.626 .009 42.281"/></g><g fill="#7CE1C0"><polygon points="194.712 70.374 212.488 80.637 255.996 55.519 238.214 45.258"/><polygon points="136.99 124.229 119.212 113.966 78.224 137.632 96.001 147.895"/><polygon points="216.893 32.943 199.111 22.679 155.609 47.798 173.387 58.063"/><polygon points="97.888 101.653 80.11 91.39 39.121 115.055 56.899 125.318"/><polygon points="116.507 25.222 134.285 35.485 177.791 10.367 160.009 .104"/><polygon points=".019 92.478 17.797 102.741 58.785 79.077 41.008 68.812"/></g><g fill="url(#linearGradient-1)" transform="translate(0.000000, 92.444444)"><polygon points="238.218 10.29 238.218 100.617 255.995 90.352 255.995 .027"/><polygon points="216.884 112.933 216.884 22.607 199.106 32.87 199.106 123.198"/><polygon points="159.994 55.451 159.994 145.778 177.773 135.514 177.773 45.186"/><polygon points="78.232 135.514 96.01 145.777 96.01 55.453 78.232 45.187"/><polygon points="56.899 32.871 56.899 123.197 39.121 112.934 39.121 22.607"/><polygon points=".01 90.352 17.787 100.615 17.787 10.29 .01 .025"/></g><g fill="#45C1A8" transform="translate(24.888889, 67.555556)"><polygon points="78.219 55.708 95.997 65.971 112.102 56.673 94.324 46.41"/><polygon points=".015 10.555 17.793 20.818 33.896 11.52 16.12 1.257"/><polygon points="39.117 33.131 56.895 43.394 72.998 34.097 55.222 23.834"/></g><g fill="#A2EACF"><polygon points="96.002 .094 78.222 10.357 238.215 102.732 255.994 92.469"/><polygon points="56.889 22.676 39.112 32.939 199.103 125.314 216.884 115.051"/><polygon points="0 55.52 159.991 147.895 177.772 137.632 17.778 45.257"/></g></g></svg>