<svg xmlns="http://www.w3.org/2000/svg" xmlns:xlink="http://www.w3.org/1999/xlink" width="256" height="159" version="1.1" viewBox="0 0 256 159"><title>Group</title><defs><linearGradient id="linearGradient-1" x1="50%" x2="0%" y1="33.756%" y2="100%"><stop offset="0%" stop-color="#60676F"/><stop offset="100%" stop-color="#303439"/></linearGradient></defs><g fill="none" fill-rule="evenodd" stroke="none" stroke-width="1"><g fill-rule="nonzero"><polygon fill="#393E42" points="21.331 158.118 21.331 115.953 149.331 115.953 149.331 158.118"/><path fill="#60676F" d="M0,158.117647 L0,0 L42.6691765,0 L85.3308235,42.1647059 L128,0 L170.669176,0 C170.669176,0 256,0 256,79.0588235 C256,158.117647 170.669176,158.117647 170.669176,158.117647 L128,158.117647 L128,52.7058824 L85.3308235,94.8705882 L42.6691765,52.7058824 L42.6691765,158.117647 L0,158.117647 Z M170.669176,42.1647059 L170.669176,115.952941 C170.669176,115.952941 212.457412,115.952941 213.330824,79.0588235 C214.211765,42.1647059 170.669176,42.1647059 170.669176,42.1647059 Z"/><path fill="url(#linearGradient-1)" d="M252.754824,54.3698824 C254.825412,61.5981176 256,69.7825882 256,79.0588235 C256,158.117647 170.669176,158.117647 170.669176,158.117647 L170.669176,21.0823529 C170.669176,21.0823529 222.034824,29.8691765 252.754824,54.3698824 Z M170.669176,42.1647059 L170.669176,115.952941 C170.669176,115.952941 212.457412,115.952941 213.330824,79.0588235 C214.211765,42.1647059 170.669176,42.1647059 170.669176,42.1647059 Z"/></g></g></svg>