<svg xmlns="http://www.w3.org/2000/svg" xmlns:xlink="http://www.w3.org/1999/xlink" width="256" height="256" preserveAspectRatio="xMidYMid" version="1.1" viewBox="0 0 256 256"><defs><linearGradient id="linearGradient-1" x1="253.534%" x2="-6.886%" y1="253.575%" y2="-.904%"><stop offset="0%" stop-color="#FFF"/><stop offset="100%" stop-color="#C2C1C1"/></linearGradient><linearGradient id="linearGradient-2" x1="209.797%" x2="-1.083%" y1="223.263%" y2="-3.113%"><stop offset="0%" stop-color="#FFF"/><stop offset="100%" stop-color="#A2A2A1"/></linearGradient><linearGradient id="linearGradient-3" x1="271.964%" x2="7.716%" y1="334.363%" y2="-9.063%"><stop offset="0%" stop-color="#FFF"/><stop offset="100%" stop-color="#B3B3B3"/></linearGradient></defs><g><circle cx="128" cy="128" r="128" fill="#E9E9E9"/><path fill="url(#linearGradient-1)" d="M166.056376,207.91795 C92.0053691,201.904527 128.42953,197.781037 21.7342282,175.789091 C51.114094,198.468285 98.8778523,254.650836 166.056376,207.91795 L166.056376,207.91795 Z"/><path fill="url(#linearGradient-2)" d="M242.34094,118.060232 C172.069799,104.143453 103.173154,56.2078827 30.8402685,71.67097 C29.809396,72.0145941 28.6067114,72.1864062 29.1221477,72.7018425 C75.3395973,80.7770103 172.241611,150.017279 242.34094,118.060232 Z"/><path fill="url(#linearGradient-3)" d="M223.097987,183.692446 C186.158389,175.789091 105.234899,114.108554 14.3463087,138.849493 C93.895302,157.061574 165.54094,201.389091 223.097987,183.692446 Z"/><path fill="#A4A4A4" d="M235.296644,81.8078827 C194.233557,51.5689566 142.689933,-3.06728505 95.6134228,47.2736545 C152.998658,54.3179499 160.558389,63.7676143 235.296644,81.8078827 Z"/><path fill="#121212" d="M20.8751678,175.445467 C105.922148,175.617279 154.544966,110.672312 242.34094,118.060232 C172.241611,153.968957 86.5073826,221.834728 20.8751678,175.445467 Z"/><path fill="#171717" d="M235.124832,81.8078827 C149.390604,74.9353995 104.719463,144.175668 13.6590604,139.193118 C48.1932886,123.558218 150.077852,31.6387552 235.124832,81.8078827 Z"/><path fill="#212121" d="M172.241611,36.6213056 C123.103356,34.9031848 73.1060403,78.5434532 28.7785235,72.8736545 C60.7355705,53.4588894 120.010738,4.4924465 172.241611,36.6213056 Z"/><path fill="#010101" d="M84.1020134,219.944795 C135.130201,219.772983 177.911409,174.93003 224.128859,183.692446 C186.330201,205.340769 140.284564,250.01191 84.1020134,219.944795 Z"/></g></svg>