<svg xmlns="http://www.w3.org/2000/svg" xmlns:xlink="http://www.w3.org/1999/xlink" width="256" height="218" preserveAspectRatio="xMidYMid" version="1.1" viewBox="0 0 256 218"><defs><linearGradient id="linearGradient-1" x1="100%" x2="8.186%" y1="50%" y2="50%"><stop offset="0%" stop-color="#1A9BE2"/><stop offset="43.45%" stop-color="#1A99E2"/><stop offset="100%" stop-color="#1A8CE2"/></linearGradient><linearGradient id="linearGradient-2" x1="100%" x2="0%" y1="50%" y2="50%"><stop offset="0%" stop-color="#3AB7F3"/><stop offset="30.746%" stop-color="#2999E9"/><stop offset="100%" stop-color="#1B80E2"/></linearGradient><linearGradient id="linearGradient-3" x1="100%" x2="0%" y1="50%" y2="50%"><stop offset="0%" stop-color="#37A7E7"/><stop offset="43.014%" stop-color="#2991E5"/><stop offset="100%" stop-color="#1B7CE3"/></linearGradient><linearGradient id="linearGradient-4" x1="100%" x2="0%" y1="50%" y2="50%"><stop offset="0%" stop-color="#1A8FE2"/><stop offset="100%" stop-color="#1A9BE2"/></linearGradient></defs><g><polygon fill="#1A8CE2" points="150.378 0 75.189 81.567 0 0 0 217.514 75.189 135.946 150.378 217.514 150.378 151.886 220.288 100.252 150.378 100.252 150.378 47.894 226.802 47.894 255.997 0"/><polygon fill="url(#linearGradient-1)" points="150.378 0 50.126 108.757 150.378 217.514"/><polygon fill="url(#linearGradient-2)" points="220.288 100.252 150.378 100.252 150.378 151.885"/><polygon fill="url(#linearGradient-3)" points="150.378 0 150.378 47.894 226.802 47.894 255.997 0"/><polygon fill="url(#linearGradient-4)" points="0 0 0 217.514 100.252 108.757"/></g></svg>