<svg xmlns="http://www.w3.org/2000/svg" xmlns:xlink="http://www.w3.org/1999/xlink" width="256" height="274" preserveAspectRatio="xMidYMid" version="1.1" viewBox="0 0 256 274"><g><polygon fill="#00A" points="96.865 58.153 128 40.177 159.135 58.153 159.135 102.094 193.73 122.067 193.73 38.18 128 .23 62.27 38.18 62.27 122.067 96.865 102.094"/><polygon fill="#0AA" points="186.811 126.062 128 160.016 69.189 126.062 128 92.107"/><path fill="#00A" d="M62.2701923,130.056586 L0.000105318379,166.008062 L0.000105318379,237.911517 L62.2701923,273.862229 L124.540532,237.911517 L124.540532,166.008062 L62.2701923,130.056586 Z M62.2701923,162.013672 L96.8648534,181.986604 L96.8648534,221.932961 L62.2701923,241.906153 L27.6757835,221.932961 L27.6757835,181.986604 L62.2701923,162.013672 Z"/><polygon fill="#00A" points="193.73 241.906 159.135 221.933 159.135 213.944 131.459 197.965 131.459 237.912 193.73 273.862 256 237.912 256 221.933 172.973 173.997 193.73 162.013 228.324 181.987 228.324 189.976 256 205.954 256 166.008 193.73 130.056 131.459 166.008 131.459 181.987 214.486 229.922"/></g></svg>