<svg xmlns="http://www.w3.org/2000/svg" xmlns:xlink="http://www.w3.org/1999/xlink" width="256" height="256" preserveAspectRatio="xMidYMid" version="1.1" viewBox="0 0 256 256"><defs><radialGradient id="radialGradient-1" cx="26.196%" cy="9.36%" r="105.51%" fx="26.196%" fy="9.36%" gradientTransform="translate(0.261957,0.093602),scale(1.000000,0.996094),rotate(58.071241),translate(-0.261957,-0.093602)"><stop offset="0%" stop-color="#51C3F7"/><stop offset="100%" stop-color="#046CF4"/></radialGradient><path id="path-2" d="M127.754545,256 C198.171057,256 255.254545,198.692655 255.254545,128 C255.254545,57.3075782 198.171057,0 127.754545,0 C57.3382659,0 0.254545455,57.3075782 0.254545455,128 C0.254545455,198.692655 57.3382659,256 127.754545,256 Z"/><radialGradient id="radialGradient-4" cx="-15.313%" cy="-13.633%" r="181.001%" fx="-15.313%" fy="-13.633%" gradientTransform="translate(-0.153135,-0.136327),scale(1.000000,0.909547),rotate(15.269975),translate(0.153135,0.136327)"><stop offset="0%" stop-color="#FFF"/><stop offset="100%" stop-color="#5CB5FF"/></radialGradient><radialGradient id="radialGradient-5" cx="69.551%" cy="-14.976%" r="205.05%" fx="69.551%" fy="-14.976%" gradientTransform="translate(0.695506,-0.149761),scale(1.000000,0.576945),rotate(117.132184),translate(-0.695506,0.149761)"><stop offset="0%" stop-color="#FFF"/><stop offset="100%" stop-color="#7AC2FF"/></radialGradient><radialGradient id="radialGradient-6" cx="40.071%" cy="19.981%" r="98.92%" fx="40.071%" fy="19.981%" gradientTransform="translate(0.400709,0.199808),scale(1.000000,0.667344),rotate(59.049023),translate(-0.400709,-0.199808)"><stop offset="0%" stop-color="#FFF"/><stop offset="100%" stop-color="#CBE7FF"/></radialGradient></defs><g><path fill="url(#radialGradient-1)" d="M127.754545,256 C198.171057,256 255.254545,198.692655 255.254545,128 C255.254545,57.3075782 198.171057,0 127.754545,0 C57.3382659,0 0.254545455,57.3075782 0.254545455,128 C0.254545455,198.692655 57.3382659,256 127.754545,256 Z"/><mask id="mask-3" fill="#fff"><use xlink:href="#path-2"/></mask><polygon fill="#E8F5FF" points="136.982 58.764 194.745 119.855 144.989 108.218" mask="url(#mask-3)"/><path fill="#64A4D8" d="M138.3786,67.2429818 L152.9036,110.235982 L144.692567,108.218182 L138.3786,67.2429818 Z" mask="url(#mask-3)"/><polygon fill="url(#radialGradient-4)" points="21.364 140.8 -94 13.964 6.172 35.907" mask="url(#mask-3)"/><polygon fill="url(#radialGradient-5)" points="159.488 196.997 136.503 58.764 79.735 127.88" mask="url(#mask-3)"/><path fill="#4492D2" d="M89.1156364,116.735418 L124.051636,160.199418 L86.3636364,120.145455 L89.1156364,116.735418 Z" mask="url(#mask-3)"/><polygon fill="url(#radialGradient-6)" points="56.725 335.585 -40.554 108.739 4.621 35.491 159.712 197.174" mask="url(#mask-3)"/></g></svg>