<svg xmlns="http://www.w3.org/2000/svg" xmlns:xlink="http://www.w3.org/1999/xlink" width="256" height="291" version="1.1" viewBox="0 0 256 291"><title>Group</title><desc>Created with Sketch.</desc><g fill="none" fill-rule="evenodd" stroke="none" stroke-width="1"><g><polygon fill="#E44D26" points="0 0 23.297 261.31 127.843 290.332 232.678 261.268 256 0"/><polygon fill="#EF6429" points="128 268.117 212.712 244.632 232.642 21.366 128 21.366"/><polygon fill="#EBEBEB" points="80.798 84.426 128 84.426 129.001 83.062 129.001 54.505 128 52.412 47.481 52.412 60.82 232.368 91.863 241.584 86.771 163.248 128 163.248 129.001 161.823 129.001 133.356 128 131.234 83.678 131.234"/><polygon fill="#FEFEFE" points="128 52.412 203.184 52.412 195.181 163.247 128 163.247 128 131.234 164.652 131.234 168.018 84.426 128 84.426"/></g></g></svg>