<svg xmlns="http://www.w3.org/2000/svg" xmlns:xlink="http://www.w3.org/1999/xlink" width="256" height="245" preserveAspectRatio="xMidYMid" version="1.1" viewBox="0 0 256 245"><defs><linearGradient id="linearGradient-1" x1="35.538%" x2="53.877%" y1="63.201%" y2="45.612%"><stop offset="19.81%" stop-color="#914F00"/><stop offset="33.48%" stop-color="#9F5600"/><stop offset="60.93%" stop-color="#B76200"/><stop offset="84.08%" stop-color="#C66900"/><stop offset="100%" stop-color="#CB6C00"/></linearGradient><linearGradient id="linearGradient-2" x1="22.231%" x2="97.843%" y1="75.36%" y2="-2.213%"><stop offset="0%" stop-color="#FBBA00"/><stop offset="6.471%" stop-color="#FDC000"/><stop offset="30.61%" stop-color="#FFD500"/><stop offset="54.52%" stop-color="#FFE300"/><stop offset="77.87%" stop-color="#FFEB00"/><stop offset="100%" stop-color="#FFED00"/></linearGradient></defs><g><path fill="#D18F00" d="M53.9234043,76.2553191 C63.9455319,102.726809 79.0876596,126.910638 98.4782979,147.499574 C117.868936,168.088511 141.07234,184.646809 166.890213,196.302979 L255.237447,0 L53.9234043,76.2553191 L53.9234043,76.2553191 Z"/><path fill="#E94F35" d="M77.2357447,191.400851 C77.2357447,191.400851 77.2357447,191.291915 77.2357447,191.400851 C77.2357447,191.291915 77.2357447,191.291915 77.2357447,191.400851 C65.252766,179.417872 64.7080851,178.873191 52.8340426,166.999149 L52.8340426,166.999149 L52.7251064,166.999149 C25.4910638,157.521702 0,186.934468 0,244.125957 C57.9540426,244.779574 86.6042553,218.634894 77.2357447,191.400851 L77.2357447,191.400851 Z"/><path fill="#F39200" d="M72.987234,187.15234 L72.987234,187.15234 C72.987234,187.043404 72.987234,187.043404 72.987234,187.15234 C65.252766,179.308936 64.8170213,178.982128 57.0825532,171.24766 L57.0825532,171.24766 L57.0825532,171.24766 C39.3259574,165.147234 22.7676596,184.211064 22.7676596,221.467234 C60.4595745,221.902979 79.0876596,204.8 72.987234,187.15234 L72.987234,187.15234 Z"/><polygon fill="#4B5B5C" points="95.319 222.121 22.986 149.787 50.002 138.24 106.866 195.105"/><path fill="#3A4949" d="M106.866383,195.104681 L50.0017021,138.24 L40.306383,142.379574 C48.5855319,154.362553 57.7361702,165.691915 67.7582979,176.258723 C78.3251064,187.479149 89.6544681,197.719149 101.746383,207.08766 L106.866383,195.104681 L106.866383,195.104681 Z"/><path fill="url(#linearGradient-1)" d="M98.4782979,147.499574 C79.0876596,126.910638 63.9455319,102.726809 53.9234043,76.2553191 L18.6280851,89.6544681 C30.3931915,120.701277 48.1497872,149.133617 70.9174468,173.426383 C93.6851064,197.719149 121.028085,217.109787 151.31234,230.726809 L166.781277,196.302979 C141.07234,184.646809 117.76,168.088511 98.4782979,147.499574 L98.4782979,147.499574 Z"/><path fill="url(#linearGradient-2)" d="M56.973617,75.0570213 C66.8868085,101.092766 81.7021277,124.949787 100.765957,145.211915 C119.829787,165.474043 142.706383,181.814468 168.088511,193.252766 L255.237447,0 L56.973617,75.0570213 L56.973617,75.0570213 Z"/><path fill="#AA2322" d="M160.680851,35.84 C161.443404,47.6051064 171.24766,56.973617 183.230638,56.973617 C195.758298,56.973617 205.889362,46.8425532 205.889362,34.3148936 C205.889362,29.0859574 204.146383,24.292766 201.09617,20.48 L160.680851,35.84 L160.680851,35.84 Z"/><path fill="#AA2322" d="M222.774468,57.4093617 C214.604255,57.4093617 207.850213,64.0544681 207.850213,72.333617 C207.850213,78.3251064 211.445106,83.5540426 216.565106,85.8417021 L228.765957,58.7165957 C226.914043,57.8451064 224.844255,57.4093617 222.774468,57.4093617 L222.774468,57.4093617 Z"/><ellipse cx="180.616" cy="47.496" fill="#441A0D" rx="3.159" ry="3.159"/><ellipse cx="180.616" cy="33.77" fill="#441A0D" rx="3.159" ry="3.159"/><ellipse cx="193.253" cy="33.77" fill="#D89687" rx="3.159" ry="3.159"/><circle cx="194.015" cy="44.991" r="3.159" fill="#D89687"/><ellipse cx="169.505" cy="38.999" fill="#D89687" rx="3.159" ry="3.159"/><circle cx="213.733" cy="66.451" r="2.07" fill="#441A0D"/><ellipse cx="220.378" cy="71.135" fill="#441A0D" rx="2.07" ry="2.07"/><ellipse cx="221.358" cy="63.074" fill="#D89687" rx="2.07" ry="2.07"/><circle cx="213.733" cy="75.384" r="2.07" fill="#D89687"/><ellipse cx="169.441" cy="93.557" fill="#AA2322" rx="22.658" ry="22.549" transform="translate(169.440507, 93.556997) rotate(-71.867645) translate(-169.440507, -93.556997)"/><ellipse cx="156.332" cy="98.95" fill="#441A0D" rx="3.159" ry="3.159" transform="translate(156.332304, 98.949697) rotate(-71.867645) translate(-156.332304, -98.949697)"/><ellipse cx="182.718" cy="95.216" fill="#441A0D" rx="3.159" ry="3.159" transform="translate(182.717527, 95.216030) rotate(-71.867645) translate(-182.717527, -95.216030)"/><ellipse cx="165.383" cy="77.872" fill="#441A0D" rx="3.159" ry="3.159" transform="translate(165.382765, 77.871670) rotate(-71.867645) translate(-165.382765, -77.871670)"/><ellipse cx="169.687" cy="90.984" fill="#441A0D" rx="3.159" ry="3.159" transform="translate(169.687269, 90.984426) rotate(-71.867645) translate(-169.687269, -90.984426)"/><ellipse cx="165.762" cy="102.959" fill="#D89687" rx="3.159" ry="3.159" transform="translate(165.761841, 102.958995) rotate(-71.867645) translate(-165.761841, -102.958995)"/><ellipse cx="156.699" cy="87.247" fill="#D89687" rx="3.159" ry="3.159" transform="translate(156.698700, 87.246924) rotate(-71.867645) translate(-156.698700, -87.246924)"/><ellipse cx="176.131" cy="107.261" fill="#D89687" rx="3.159" ry="3.159" transform="translate(176.131116, 107.261353) rotate(-71.867645) translate(-176.131116, -107.261353)"/><ellipse cx="178.138" cy="82.095" fill="#D89687" rx="3.159" ry="3.159" transform="translate(178.138112, 82.094657) rotate(-71.867645) translate(-178.138112, -82.094657)"/><ellipse cx="106.19" cy="86.202" fill="#AA2322" rx="22.659" ry="22.659" transform="translate(106.190118, 86.202030) rotate(-64.106303) translate(-106.190118, -86.202030)"/><circle cx="119.335" cy="80.482" r="3.159" fill="#441A0D" transform="translate(119.334770, 80.482293) rotate(-64.106303) translate(-119.334770, -80.482293)"/><circle cx="98.039" cy="97.007" r="3.159" fill="#441A0D" transform="translate(98.038958, 97.007224) rotate(-64.106303) translate(-98.038958, -97.007224)"/><ellipse cx="97.745" cy="72.369" fill="#441A0D" rx="3.159" ry="3.159" transform="translate(97.744645, 72.368760) rotate(-64.106303) translate(-97.744645, -72.368760)"/><circle cx="104.138" cy="84.47" r="3.159" fill="#441A0D" transform="translate(104.138164, 84.470370) rotate(-64.106303) translate(-104.138164, -84.470370)"/><ellipse cx="115.506" cy="90.067" fill="#D89687" rx="3.159" ry="3.159" transform="translate(115.506241, 90.066998) rotate(-64.106303) translate(-115.506241, -90.066998)"/><ellipse cx="110.443" cy="72.664" fill="#D89687" rx="3.159" ry="3.159" transform="translate(110.442540, 72.663857) rotate(-64.106303) translate(-110.442540, -72.663857)"/><circle cx="111.174" cy="100.461" r="3.159" fill="#D89687" transform="translate(111.174362, 100.461023) rotate(-64.106303) translate(-111.174362, -100.461023)"/><circle cx="91.837" cy="84.448" r="3.159" fill="#D89687" transform="translate(91.836906, 84.448049) rotate(-64.106303) translate(-91.836906, -84.448049)"/><ellipse cx="122.776" cy="135.957" fill="#AA2322" rx="15.252" ry="15.252" transform="translate(122.776249, 135.956545) rotate(-8.522267) translate(-122.776249, -135.956545)"/><circle cx="127.786" cy="127.787" r="2.179" fill="#441A0D" transform="translate(127.785788, 127.787182) rotate(-8.522267) translate(-127.785788, -127.787182)"/><circle cx="122.34" cy="144.998" r="2.179" fill="#441A0D" transform="translate(122.339916, 144.998444) rotate(-8.522267) translate(-122.339916, -144.998444)"/><circle cx="112.754" cy="131.492" r="2.179" fill="#441A0D" transform="translate(112.753991, 131.491731) rotate(-8.522267) translate(-112.753991, -131.491731)"/><circle cx="120.923" cy="135.849" r="2.179" fill="#441A0D" transform="translate(120.923005, 135.848524) rotate(-8.522267) translate(-120.923005, -135.848524)"/><ellipse cx="129.31" cy="134.54" fill="#D89687" rx="2.179" ry="2.179" transform="translate(129.310393, 134.540375) rotate(-8.522267) translate(-129.310393, -134.540375)"/><circle cx="119.943" cy="126.807" r="2.179" fill="#D89687" transform="translate(119.942732, 126.806909) rotate(-8.522267) translate(-119.942732, -126.806909)"/><circle cx="131.056" cy="141.948" r="2.179" fill="#D89687" transform="translate(131.055616, 141.948340) rotate(-8.522267) translate(-131.055616, -141.948340)"/><ellipse cx="114.06" cy="140.423" fill="#D89687" rx="2.179" ry="2.179" transform="translate(114.060070, 140.423473) rotate(-8.522267) translate(-114.060070, -140.423473)"/><g transform="translate(153.600000, 132.902128)"><path fill="#AA2322" d="M35.7310638,3.92170213 C25.1642553,-2.83234043 11.2204255,0.326808511 4.57531915,10.893617 C-2.1787234,21.4604255 0.980425532,35.4042553 11.547234,42.0493617 C14.5974468,44.0102128 17.9744681,45.0995745 21.4604255,45.426383 L39.1080851,6.31829787 C37.9097872,5.44680851 36.8204255,4.57531915 35.7310638,3.92170213 L35.7310638,3.92170213 Z"/><ellipse cx="9.375" cy="24.988" fill="#441A0D" rx="3.159" ry="3.159" transform="translate(9.374622, 24.988421) rotate(-57.512988) translate(-9.374622, -24.988421)"/><ellipse cx="23.387" cy="6.645" fill="#441A0D" rx="3.159" ry="3.159" transform="translate(23.386853, 6.645499) rotate(-57.512988) translate(-23.386853, -6.645499)"/><circle cx="24.465" cy="20.389" r="3.159" fill="#441A0D" transform="translate(24.465430, 20.388733) rotate(-57.512988) translate(-24.465430, -20.388733)"/><circle cx="17.594" cy="31.046" r="3.159" fill="#D89687" transform="translate(17.594466, 31.046209) rotate(-57.512988) translate(-17.594466, -31.046209)"/><ellipse cx="12.77" cy="13.682" fill="#D89687" rx="3.159" ry="3.159" transform="translate(12.770228, 13.682285) rotate(-57.512988) translate(-12.770228, -13.682285)"/><path fill="#D89687" d="M23.9659574,36.0578723 C23.3123404,37.147234 23.3123404,38.4544681 23.9659574,39.4348936 L26.1446809,34.6417021 C25.2731915,34.7506383 24.5106383,35.2953191 23.9659574,36.0578723 L23.9659574,36.0578723 Z"/><path fill="#D89687" d="M36.493617,11.2204255 C34.9685106,10.24 33.0076596,10.6757447 32.1361702,12.2008511 C31.1557447,13.7259574 31.5914894,15.6868085 33.1165957,16.5582979 C33.4434043,16.7761702 33.7702128,16.8851064 34.0970213,16.9940426 L36.493617,11.2204255 C36.6025532,11.3293617 36.6025532,11.2204255 36.493617,11.2204255 L36.493617,11.2204255 Z"/></g><path fill="#441A0D" d="M192.381277,26.6893617 C194.124255,26.6893617 195.540426,25.2731915 195.540426,23.5302128 C195.540426,23.2034043 195.540426,22.9855319 195.431489,22.6587234 L189.548936,24.946383 C190.093617,25.9268085 191.182979,26.6893617 192.381277,26.6893617 L192.381277,26.6893617 Z"/></g></svg>