<svg xmlns="http://www.w3.org/2000/svg" xmlns:xlink="http://www.w3.org/1999/xlink" width="256" height="216" preserveAspectRatio="xMidYMid" version="1.1" viewBox="0 0 256 216"><defs><linearGradient id="linearGradient-1" x1="12.263%" x2="76.247%" y1="17.905%" y2="93.931%"><stop offset="0%" stop-color="#FFF"/><stop offset="100%" stop-color="#F3F3F3"/></linearGradient><linearGradient id="linearGradient-2" x1="23.187%" x2="76.733%" y1="25.037%" y2="75%"><stop offset="0%" stop-color="#FFF"/><stop offset="100%" stop-color="#CDCCCC"/></linearGradient><linearGradient id="linearGradient-3" x1="-7.453%" x2="107.462%" y1="5.774%" y2="94.22%"><stop offset="0%" stop-color="#E6E6E5"/><stop offset="100%" stop-color="#B4B4B4"/></linearGradient><linearGradient id="linearGradient-4" x1="-162.109%" x2="261.031%" y1="25.07%" y2="75.011%"><stop offset="0%" stop-color="#E6E6E5"/><stop offset="100%" stop-color="#B4B4B4"/></linearGradient><linearGradient id="linearGradient-5" x1="14.795%" x2="85.174%" y1="-20.578%" y2="120.413%"><stop offset="0%" stop-color="#FFF"/><stop offset="100%" stop-color="#F3F3F3"/></linearGradient><linearGradient id="linearGradient-6" x1="-2.03%" x2="94.731%" y1="1.797%" y2="105.624%"><stop offset="0%" stop-color="#E6E6E5"/><stop offset="100%" stop-color="#B4B4B4"/></linearGradient><linearGradient id="linearGradient-7" x1="8.471%" x2="87.773%" y1="-14.277%" y2="121.196%"><stop offset="0%" stop-color="#E6E6E5"/><stop offset="100%" stop-color="#B4B4B4"/></linearGradient><linearGradient id="linearGradient-8" x1="28.439%" x2="71.998%" y1="24.939%" y2="74.85%"><stop offset="0%" stop-color="#E6E6E5"/><stop offset="100%" stop-color="#B4B4B4"/></linearGradient><linearGradient id="linearGradient-9" x1=".074%" x2="100%" y1="49.985%" y2="49.985%"><stop offset="0%" stop-color="#FFF"/><stop offset="100%" stop-color="#F3F3F3"/></linearGradient><linearGradient id="linearGradient-10" x1="-.151%" x2="99.908%" y1="50%" y2="50%"><stop offset="0%" stop-color="#FFF"/><stop offset="100%" stop-color="#F3F3F3"/></linearGradient><linearGradient id="linearGradient-11" x1="1.554%" x2="91.147%" y1="-2.029%" y2="111.297%"><stop offset="0%" stop-color="#E6E6E5"/><stop offset="100%" stop-color="#B4B4B4"/></linearGradient><linearGradient id="linearGradient-12" x1="-4.05%" x2="100.293%" y1="3.951%" y2="100.087%"><stop offset="0%" stop-color="#E6E6E5"/><stop offset="100%" stop-color="#B4B4B4"/></linearGradient><linearGradient id="linearGradient-13" x1="28.439%" x2="71.998%" y1="25.295%" y2="75.206%"><stop offset="0%" stop-color="#E6E6E5"/><stop offset="100%" stop-color="#B4B4B4"/></linearGradient><linearGradient id="linearGradient-14" x1="-.151%" x2="99.908%" y1="49.929%" y2="49.929%"><stop offset="0%" stop-color="#FFF"/><stop offset="100%" stop-color="#F3F3F3"/></linearGradient><linearGradient id="linearGradient-15" x1=".074%" x2="100%" y1="50.134%" y2="50.134%"><stop offset="0%" stop-color="#FFF"/><stop offset="100%" stop-color="#F3F3F3"/></linearGradient><linearGradient id="linearGradient-16" x1="28.391%" x2="71.562%" y1="6.822%" y2="93.236%"><stop offset="0%" stop-color="#FFF"/><stop offset="100%" stop-color="#F3F3F3"/></linearGradient><linearGradient id="linearGradient-17" x1="25.117%" x2="74.898%" y1="-.221%" y2="100.255%"><stop offset="0%" stop-color="#FFF"/><stop offset="100%" stop-color="#F3F3F3"/></linearGradient><linearGradient id="linearGradient-18" x1="91.728%" x2="45.16%" y1="-5.343%" y2="89.085%"><stop offset="0%" stop-color="#FDFEFF" stop-opacity="0"/><stop offset="91.04%" stop-color="#FDFEFF" stop-opacity=".91"/><stop offset="100%" stop-color="#FDFEFF"/></linearGradient><linearGradient id="linearGradient-19" x1="91.694%" x2="45.127%" y1="-5.291%" y2="88.564%"><stop offset="0%" stop-color="#FDFEFF" stop-opacity="0"/><stop offset="91.04%" stop-color="#FDFEFF" stop-opacity=".91"/><stop offset="100%" stop-color="#FDFEFF"/></linearGradient><linearGradient id="linearGradient-20" x1="-12.528%" x2="109.001%" y1="7.979%" y2="85.233%"><stop offset="0%" stop-color="#E6E6E5"/><stop offset="100%" stop-color="#B4B4B4"/></linearGradient><linearGradient id="linearGradient-21" x1="-86.792%" x2="187.005%" y1="19.441%" y2="80.532%"><stop offset="0%" stop-color="#E6E6E5"/><stop offset="100%" stop-color="#B4B4B4"/></linearGradient><linearGradient id="linearGradient-22" x1="26.757%" x2="73.163%" y1="24.978%" y2="75.039%"><stop offset="0%" stop-color="#FFF"/><stop offset="100%" stop-color="#CDCCCC"/></linearGradient><linearGradient id="linearGradient-23" x1="30.007%" x2="69.977%" y1="10.056%" y2="89.997%"><stop offset="0%" stop-color="#FFF"/><stop offset="100%" stop-color="#F3F3F3"/></linearGradient><linearGradient id="linearGradient-24" x1="29.174%" x2="70.785%" y1="8.204%" y2="91.679%"><stop offset="0%" stop-color="#FFF"/><stop offset="100%" stop-color="#F3F3F3"/></linearGradient><linearGradient id="linearGradient-25" x1="-12.386%" x2="112.446%" y1="8.279%" y2="91.754%"><stop offset="0%" stop-color="#E6E6E5"/><stop offset="100%" stop-color="#B4B4B4"/></linearGradient><linearGradient id="linearGradient-26" x1="36.655%" x2="63.346%" y1="23.218%" y2="76.667%"><stop offset="0%" stop-color="#FFF"/><stop offset="100%" stop-color="#F3F3F3"/></linearGradient><linearGradient id="linearGradient-27" x1="-1.652%" x2="94.605%" y1="2.073%" y2="105.901%"><stop offset="0%" stop-color="#E6E6E5"/><stop offset="100%" stop-color="#B4B4B4"/></linearGradient><linearGradient id="linearGradient-28" x1="8.292%" x2="87.593%" y1="-13.765%" y2="121.708%"><stop offset="0%" stop-color="#E6E6E5"/><stop offset="100%" stop-color="#B4B4B4"/></linearGradient><linearGradient id="linearGradient-29" x1="28.172%" x2="71.731%" y1="25.451%" y2="75.362%"><stop offset="0%" stop-color="#E6E6E5"/><stop offset="100%" stop-color="#B4B4B4"/></linearGradient><linearGradient id="linearGradient-30" x1="-.033%" x2="99.893%" y1="49.978%" y2="49.978%"><stop offset="0%" stop-color="#FFF"/><stop offset="100%" stop-color="#F3F3F3"/></linearGradient><linearGradient id="linearGradient-31" x1=".083%" x2="100.142%" y1="49.995%" y2="49.995%"><stop offset="0%" stop-color="#FFF"/><stop offset="100%" stop-color="#F3F3F3"/></linearGradient><linearGradient id="linearGradient-32" x1="1.914%" x2="91.04%" y1="-2.381%" y2="111.701%"><stop offset="0%" stop-color="#E6E6E5"/><stop offset="100%" stop-color="#B4B4B4"/></linearGradient><linearGradient id="linearGradient-33" x1="-4.229%" x2="100.114%" y1="3.665%" y2="99.802%"><stop offset="0%" stop-color="#E6E6E5"/><stop offset="100%" stop-color="#B4B4B4"/></linearGradient><linearGradient id="linearGradient-34" x1="28.172%" x2="71.731%" y1="24.766%" y2="74.677%"><stop offset="0%" stop-color="#E6E6E5"/><stop offset="100%" stop-color="#B4B4B4"/></linearGradient><linearGradient id="linearGradient-35" x1=".083%" x2="100.142%" y1="49.924%" y2="49.924%"><stop offset="0%" stop-color="#FFF"/><stop offset="100%" stop-color="#F3F3F3"/></linearGradient><linearGradient id="linearGradient-36" x1="-.033%" x2="99.893%" y1="49.869%" y2="49.869%"><stop offset="0%" stop-color="#FFF"/><stop offset="100%" stop-color="#F3F3F3"/></linearGradient><linearGradient id="linearGradient-37" x1="-7.571%" x2="107.554%" y1="5.829%" y2="94.275%"><stop offset="0%" stop-color="#E6E6E5"/><stop offset="100%" stop-color="#B4B4B4"/></linearGradient><linearGradient id="linearGradient-38" x1="-161.333%" x2="261.809%" y1="24.992%" y2="75.041%"><stop offset="0%" stop-color="#E6E6E5"/><stop offset="100%" stop-color="#B4B4B4"/></linearGradient><linearGradient id="linearGradient-39" x1="14.725%" x2="85.22%" y1="-20.449%" y2="120.543%"><stop offset="0%" stop-color="#FFF"/><stop offset="100%" stop-color="#F3F3F3"/></linearGradient><linearGradient id="linearGradient-40" x1="25.18%" x2="75.189%" y1=".287%" y2="99.849%"><stop offset="0%" stop-color="#FFF"/><stop offset="100%" stop-color="#F3F3F3"/></linearGradient></defs><g fill="none" fill-rule="evenodd" stroke="none" stroke-width="1"><g><g><path fill="url(#linearGradient-1)" d="M109.645283,213.397736 C109.452075,213.397736 109.355472,213.397736 109.162264,213.301132 L93.3192453,209.340377 C93.2226415,209.340377 93.029434,209.243774 92.9328302,209.14717 L82.4996226,203.930566 L82.4996226,205.862642 C82.4996226,206.635472 82.1132075,207.311698 81.4369811,207.601509 L76.1237736,210.209811 C75.8339623,210.306415 75.5441509,210.403019 75.2543396,210.403019 C74.9645283,210.403019 74.674717,210.306415 74.3849057,210.209811 L21.4460377,183.740377 C20.7698113,183.450566 20.3833962,182.77434 20.3833962,182.001509 L20.3833962,167.607547 L2.89811321,158.913208 C2.22188679,158.623396 1.8354717,157.94717 1.8354717,157.17434 L1.8354717,136.018113 C1.8354717,135.245283 2.22188679,134.569057 2.89811321,134.279245 L10.8196226,130.318491 C11.109434,130.221887 11.3992453,130.125283 11.6890566,130.125283 C11.9788679,130.125283 12.2686792,130.221887 12.5584906,130.318491 L24.6339623,136.404528 L26.6626415,135.341887 C26.9524528,135.245283 27.2422642,135.148679 27.5320755,135.148679 C27.8218868,135.148679 28.1116981,135.245283 28.4015094,135.341887 L29.3675472,135.824906 L41.7328302,120.078491 L39.9939623,119.209057 C39.3177358,118.919245 38.9313208,118.243019 38.9313208,117.470189 L38.9313208,87.7162264 L33.4249057,84.914717 C32.7486792,84.6249057 32.3622642,83.9486792 32.3622642,83.1758491 L32.3622642,40.8633962 C32.3622642,40.090566 32.7486792,39.4143396 33.4249057,39.1245283 L107.52,2.12528302 C107.809811,2.02867925 108.099623,1.93207547 108.389434,1.93207547 C108.679245,1.93207547 108.969057,2.02867925 109.258868,2.12528302 L150.701887,22.8950943 L152.440755,22.0256604 C152.730566,21.9290566 153.020377,21.8324528 153.310189,21.8324528 C153.6,21.8324528 153.889811,21.9290566 154.179623,22.0256604 L185.962264,37.8686792 C186.638491,38.1584906 187.024906,38.834717 187.024906,39.6075472 L187.024906,64.8211321 L228.274717,85.4943396 C228.950943,85.7841509 229.337358,86.4603774 229.337358,87.2332075 L229.337358,99.3086792 L236.196226,102.786415 C236.29283,102.883019 236.486038,102.979623 236.582642,103.076226 L252.42566,116.310943 C252.908679,116.697358 253.101887,117.180377 253.101887,117.76 L253.101887,121.720755 C253.101887,122.493585 252.715472,123.169811 252.039245,123.459623 L241.41283,128.77283 C241.123019,128.869434 240.833208,128.966038 240.543396,128.966038 C240.156981,128.966038 239.770566,128.869434 239.384151,128.579623 L229.240755,120.947925 L229.240755,124.812075 L236.099623,129.255849 L251.749434,134.472453 C252.522264,134.762264 253.101887,135.438491 253.101887,136.307925 L253.101887,140.268679 C253.101887,141.041509 252.715472,141.717736 252.039245,142.007547 L241.41283,147.320755 C241.123019,147.417358 240.833208,147.513962 240.543396,147.513962 C240.350189,147.513962 240.253585,147.513962 240.060377,147.417358 L224.217358,143.456604 C224.120755,143.456604 223.927547,143.36 223.830943,143.263396 L208.567547,135.631698 L207.794717,136.018113 C207.601509,136.211321 207.504906,136.404528 207.215094,136.501132 C206.925283,136.69434 206.538868,136.790943 206.152453,136.790943 C205.862642,136.790943 205.57283,136.69434 205.283019,136.597736 L186.928302,127.420377 L186.928302,129.54566 C186.928302,130.318491 186.541887,130.994717 185.86566,131.284528 L111.770566,168.283774 C111.480755,168.380377 111.190943,168.476981 110.901132,168.476981 C110.611321,168.476981 110.321509,168.380377 110.031698,168.283774 L99.405283,162.970566 C98.7290566,162.680755 98.3426415,162.004528 98.3426415,161.231698 L98.3426415,159.106415 C98.149434,159.203019 97.8596226,159.203019 97.6664151,159.203019 C97.3766038,159.203019 97.0867925,159.106415 96.7969811,159.009811 L86.170566,153.696604 C85.4943396,153.406792 85.1079245,152.730566 85.1079245,151.957736 L85.1079245,150.508679 L80.8573585,148.383396 C80.1811321,148.093585 79.794717,147.417358 79.794717,146.644528 L79.794717,138.723019 L56.1267925,127.22717 L48.0120755,137.370566 L86.5569811,156.594717 C87.2332075,156.884528 87.6196226,157.560755 87.6196226,158.333585 L87.6196226,160.072453 L105.104906,168.766792 C105.201509,168.863396 105.394717,168.96 105.491321,169.056604 L121.33434,182.291321 C121.817358,182.677736 122.010566,183.160755 122.010566,183.740377 L122.010566,187.701132 C122.010566,188.473962 121.624151,189.150189 120.947925,189.44 L110.321509,194.753208 C110.031698,194.849811 109.741887,194.946415 109.452075,194.946415 C109.06566,194.946415 108.679245,194.849811 108.29283,194.56 L92.6430189,182.870943 L87.5230189,181.035472 L87.5230189,184.030189 L104.911698,195.236226 L120.561509,200.45283 C121.33434,200.742642 121.913962,201.418868 121.913962,202.288302 L121.913962,206.249057 C121.913962,207.021887 121.527547,207.698113 120.851321,207.987925 L110.224906,213.301132 C110.224906,213.397736 109.935094,213.397736 109.645283,213.397736 L109.645283,213.397736 Z"/><path fill="#333" d="M108.29283,3.86415094 L116.21434,7.82490566 L118.822642,9.17735849 L129.449057,14.490566 L150.605283,25.1169811 L153.213585,23.7645283 L185.09283,39.6075472 L185.09283,66.0769811 L227.405283,87.2332075 L227.405283,100.467925 L235.326792,104.428679 L251.169811,117.663396 L251.169811,121.624151 L240.543396,126.937358 L227.405283,116.890566 L227.405283,125.681509 L235.326792,130.801509 L251.169811,136.114717 L251.169811,140.075472 L240.543396,145.388679 L224.700377,141.427925 L208.567547,133.409811 L206.152453,134.569057 L206.152453,134.858868 L184.996226,124.232453 L184.996226,129.54566 L110.901132,166.544906 L100.274717,161.231698 L100.274717,155.918491 L97.6664151,154.566038 L97.6664151,157.17434 L87.04,151.861132 L87.04,149.25283 L81.7267925,146.644528 L81.7267925,137.46717 L55.5471698,124.715472 L45.0173585,137.950189 L85.6875472,158.236981 L85.6875472,161.135094 L104.235472,170.409057 L120.078491,183.643774 L120.078491,187.604528 L109.452075,192.917736 L93.6090566,181.035472 L85.6875472,178.233962 L85.6875472,184.996226 L104.235472,196.878491 L120.078491,202.191698 L120.078491,206.152453 L109.452075,211.46566 L93.6090566,207.504906 L80.5675472,200.935849 L80.5675472,205.959245 L75.2543396,208.567547 L22.3154717,182.098113 L22.3154717,166.448302 L3.86415094,157.270943 L3.86415094,136.114717 L11.7856604,132.153962 L24.730566,138.626415 L27.6286792,137.177358 L29.9471698,138.336604 L44.8241509,119.498868 L40.8633962,117.566792 L40.8633962,86.5569811 L34.2943396,83.2724528 L34.2943396,40.8633962 L108.29283,3.86415094 L108.29283,3.86415094 Z M108.29283,0 C107.713208,0 107.133585,0.0966037736 106.553962,0.386415094 L32.5554717,37.4822642 C31.2030189,38.1584906 30.4301887,39.5109434 30.4301887,40.96 L30.4301887,83.2724528 C30.4301887,84.7215094 31.2996226,86.0739623 32.5554717,86.7501887 L36.9992453,88.9720755 L36.9992453,117.663396 C36.9992453,119.015849 37.6754717,120.271698 38.834717,120.947925 L28.8845283,133.603019 C28.4981132,133.506415 28.1116981,133.409811 27.6286792,133.409811 C27.0490566,133.409811 26.469434,133.506415 25.8898113,133.796226 L24.730566,134.375849 L13.5245283,128.676226 C12.9449057,128.386415 12.365283,128.289811 11.7856604,128.289811 C11.2060377,128.289811 10.6264151,128.386415 10.0467925,128.676226 L2.12528302,132.636981 C0.869433962,133.313208 0,134.66566 0,136.114717 L0,157.270943 C0,158.72 0.869433962,160.072453 2.12528302,160.748679 L18.5479245,168.96 L18.5479245,182.194717 C18.5479245,183.643774 19.4173585,184.996226 20.6732075,185.672453 L73.6120755,212.141887 C74.1916981,212.431698 74.7713208,212.528302 75.3509434,212.528302 C75.930566,212.528302 76.5101887,212.431698 77.0898113,212.141887 L82.4030189,209.533585 C83.3690566,209.050566 84.045283,208.181132 84.3350943,207.215094 L92.16,211.079245 C92.4498113,211.175849 92.6430189,211.272453 92.9328302,211.369057 L108.775849,215.329811 C109.06566,215.426415 109.355472,215.426415 109.741887,215.426415 C110.321509,215.426415 110.901132,215.329811 111.480755,215.04 L122.10717,209.726792 C123.459623,209.050566 124.232453,207.698113 124.232453,206.249057 L124.232453,202.288302 C124.232453,200.646038 123.169811,199.100377 121.624151,198.617358 L113.026415,195.719245 L122.10717,191.178868 C123.459623,190.502642 124.232453,189.150189 124.232453,187.701132 L124.232453,183.740377 C124.232453,182.581132 123.749434,181.518491 122.88,180.74566 L110.321509,170.312453 C110.611321,170.409057 110.901132,170.409057 111.09434,170.409057 C111.673962,170.409057 112.253585,170.312453 112.833208,170.022642 L186.928302,133.023396 C187.990943,132.540377 188.66717,131.57434 188.956981,130.511698 L204.606792,138.336604 C205.186415,138.626415 205.766038,138.723019 206.34566,138.723019 C207.021887,138.723019 207.794717,138.529811 208.37434,138.143396 C208.567547,138.046792 208.664151,137.950189 208.857358,137.756981 L223.154717,144.90566 C223.444528,145.002264 223.637736,145.098868 223.927547,145.195472 L239.770566,149.156226 C240.060377,149.25283 240.350189,149.25283 240.736604,149.25283 C241.316226,149.25283 241.895849,149.156226 242.475472,148.866415 L253.101887,143.553208 C254.45434,142.876981 255.22717,141.524528 255.22717,140.075472 L255.22717,136.114717 C255.22717,134.472453 254.164528,132.926792 252.618868,132.443774 L244.021132,129.54566 L253.101887,125.005283 C254.45434,124.329057 255.22717,122.976604 255.22717,121.527547 L255.22717,117.566792 C255.22717,116.407547 254.744151,115.344906 253.874717,114.572075 L237.741887,101.433962 C237.548679,101.240755 237.258868,101.047547 236.969057,100.950943 L231.17283,98.0528302 L231.17283,87.1366038 C231.17283,85.6875472 230.303396,84.3350943 229.047547,83.6588679 L188.860377,63.565283 L188.860377,39.6075472 C188.860377,38.1584906 187.990943,36.8060377 186.735094,36.1298113 L155.049057,20.2867925 C154.469434,19.9969811 153.889811,19.9003774 153.310189,19.9003774 C152.730566,19.9003774 152.150943,19.9969811 151.571321,20.2867925 L150.701887,20.7698113 L131.284528,11.0128302 L120.658113,5.69962264 L118.049811,4.34716981 L110.128302,0.386415094 C109.548679,0.0966037736 108.969057,0 108.29283,0 L108.29283,0 L108.29283,0 Z M51.2,136.69434 L56.8030189,129.642264 L77.9592453,139.978868 L77.9592453,146.741132 C77.9592453,148.190189 78.8286792,149.542642 80.0845283,150.218868 L83.2724528,151.764528 L83.2724528,152.05434 C83.2724528,152.344151 83.2724528,152.633962 83.3690566,152.82717 L51.2,136.69434 L51.2,136.69434 Z M89.7449057,158.816604 L89.7449057,158.333585 C89.7449057,158.043774 89.7449057,157.753962 89.6483019,157.560755 L96.0241509,160.748679 C96.2173585,160.845283 96.3139623,160.941887 96.5071698,160.941887 L96.5071698,161.231698 C96.5071698,161.618113 96.6037736,162.004528 96.7003774,162.29434 L89.7449057,158.816604 L89.7449057,158.816604 Z"/></g><path fill="url(#linearGradient-2)" stroke="#333" d="M185.09283,129.54566 L110.997736,166.544906 L110.997736,124.232453 L185.09283,87.1366038 L185.09283,129.54566 Z"/><g stroke="#333"><g><path fill="url(#linearGradient-3)" d="M0.0966037736,3.47773585 L0.0966037736,45.7901887 L53.0354717,72.2596226 L53.0354717,29.9471698 L0.0966037736,3.47773585 Z" transform="translate(140.075472, 59.894340) translate(28.981132, 0.000000)"/><path fill="url(#linearGradient-4)" d="M53.0354717,29.9471698 L53.0354717,72.2596226 L58.3486792,69.6513208 L58.3486792,27.2422642 L53.0354717,29.9471698 Z" transform="translate(140.075472, 59.894340) translate(28.981132, 0.000000)"/><path fill="url(#linearGradient-5)" d="M0.0966037736,3.47773585 L5.40981132,0.869433962 L58.3486792,27.2422642 L53.0354717,29.9471698 L0.0966037736,3.47773585 Z" transform="translate(140.075472, 59.894340) translate(28.981132, 0.000000)"/></g><path fill="#676767" d="M34.3909434,11.2060377 L23.7645283,16.4226415 L66.1735849,37.5788679 L76.7033962,32.3622642 L34.3909434,11.2060377 Z" transform="translate(140.075472, 59.894340)"/><path fill="#676767" d="M7.92150943,8.7909434 L0,12.7516981 L31.7826415,28.594717 L39.7041509,24.6339623 L7.92150943,8.7909434 Z" transform="translate(140.075472, 59.894340)"/><path fill="#676767" d="M0,12.7516981 L0,33.9079245 L31.7826415,49.7509434 L31.7826415,28.594717 L0,12.7516981 Z" transform="translate(140.075472, 59.894340)"/><path fill="#676767" d="M23.7645283,16.7124528 L23.7645283,53.7116981 L66.1735849,74.8679245 L66.1735849,37.8686792 L23.7645283,16.7124528 Z" transform="translate(140.075472, 59.894340)"/><path fill="#676767" d="M76.7033962,32.3622642 L66.1735849,37.5788679 L66.1735849,74.674717 L76.7033962,69.3615094 L76.7033962,32.3622642 Z" transform="translate(140.075472, 59.894340)"/><g><path fill="url(#linearGradient-6)" d="M0.483018868,5.40981132 L0.483018868,13.3313208 L18.9343396,22.605283 L18.9343396,17.2920755 L0.483018868,5.40981132 Z" transform="translate(140.075472, 59.894340) translate(65.690566, 58.928302)"/><path fill="url(#linearGradient-7)" d="M18.9343396,17.2920755 L18.9343396,22.605283 L34.7773585,26.5660377 L34.7773585,22.605283 L18.9343396,17.2920755 Z" transform="translate(140.075472, 59.894340) translate(65.690566, 58.928302)"/><path fill="url(#linearGradient-8)" d="M34.7773585,22.605283 L34.7773585,26.5660377 L45.4037736,21.2528302 L45.4037736,17.2920755 L34.7773585,22.605283 Z" transform="translate(140.075472, 59.894340) translate(65.690566, 58.928302)"/><path fill="url(#linearGradient-9)" d="M29.5607547,11.9788679 L18.9343396,17.2920755 L34.7773585,22.605283 L45.4037736,17.2920755 L29.5607547,11.9788679 Z" transform="translate(140.075472, 59.894340) translate(65.690566, 58.928302)"/><path fill="url(#linearGradient-10)" d="M11.0128302,0.0966037736 L0.483018868,5.40981132 L18.9343396,17.2920755 L29.5607547,11.9788679 L11.0128302,0.0966037736 Z" transform="translate(140.075472, 59.894340) translate(65.690566, 58.928302)"/></g><g><path fill="url(#linearGradient-11)" d="M0.483018868,5.69962264 L0.483018868,13.6211321 L18.9343396,20.2867925 L18.9343396,14.9735849 L0.483018868,5.69962264 Z" transform="translate(140.075472, 59.894340) translate(65.690566, 34.777358)"/><path fill="url(#linearGradient-12)" d="M18.9343396,14.9735849 L18.9343396,20.2867925 L34.7773585,32.1690566 L34.7773585,28.2083019 L18.9343396,14.9735849 Z" transform="translate(140.075472, 59.894340) translate(65.690566, 34.777358)"/><path fill="url(#linearGradient-13)" d="M34.7773585,28.2083019 L34.7773585,32.1690566 L45.4037736,26.8558491 L45.4037736,22.8950943 L34.7773585,28.2083019 Z" transform="translate(140.075472, 59.894340) translate(65.690566, 34.777358)"/><path fill="url(#linearGradient-14)" d="M11.0128302,0.483018868 L0.483018868,5.69962264 L18.9343396,14.9735849 L29.5607547,9.66037736 L11.0128302,0.483018868 Z" transform="translate(140.075472, 59.894340) translate(65.690566, 34.777358)"/><path fill="url(#linearGradient-15)" d="M29.5607547,9.66037736 L18.9343396,14.9735849 L34.7773585,28.2083019 L45.4037736,22.8950943 L29.5607547,9.66037736 Z" transform="translate(140.075472, 59.894340) translate(65.690566, 34.777358)"/></g></g><path fill="#676767" stroke="#333" d="M40.8633962,42.2158491 L40.8633962,117.566792 L89.8415094,141.427925 L89.8415094,65.9803774 L40.8633962,42.2158491 Z"/><path fill="#676767" stroke="#333" d="M71.2935849,59.4113208 L71.2935849,97.7630189 L81.92,104.332075 L81.92,146.741132 L108.29283,159.879245 L108.29283,77.9592453 L71.2935849,59.4113208 Z"/><path fill="#676767" stroke="#333" d="M116.310943,7.82490566 L43.5683019,44.8241509 L107.036981,76.6067925 L179.779623,39.6075472 L116.310943,7.82490566 Z"/><path fill="url(#linearGradient-16)" stroke="#333" d="M34.2943396,40.8633962 L108.29283,3.86415094 L150.701887,25.0203774 L76.6067925,62.0196226 L34.2943396,40.8633962 Z"/><path fill="url(#linearGradient-17)" stroke="#333" d="M108.29283,14.490566 L118.919245,9.17735849 L129.54566,14.490566 L118.919245,19.7071698 L108.29283,14.490566 Z"/><path fill="#676767" stroke="#333" d="M108.29283,83.1758491 L182.387925,46.1766038 L182.387925,125.488302 L108.29283,162.584151 L108.29283,83.1758491 Z"/><path fill="#676767" stroke="#333" d="M55.450566,40.8633962 L65.9803774,46.1766038 L118.919245,19.7071698 L108.29283,14.490566 L55.450566,40.8633962 Z"/><path fill="#676767" stroke="#333" d="M108.29283,25.0203774 L116.310943,21.0596226 L118.919245,19.7071698 L108.29283,14.490566 L108.29283,25.0203774 Z"/><g stroke="#333"><path fill="#333" d="M0.676226415,9.27396226 L3.2845283,8.01811321 L8.59773585,5.31320755 L0.676226415,1.35245283 L0.676226415,9.27396226 Z" transform="translate(102.400000, 18.354717)"/><path fill="#676767" d="M0.676226415,1.35245283 L8.59773585,5.31320755 L11.2060377,4.05735849 L3.2845283,0.0966037736 L0.676226415,1.35245283 Z" transform="translate(102.400000, 18.354717)"/></g><g stroke="#333"><path fill="#333" d="M0.193207547,10.0467925 L2.80150943,8.69433962 L8.11471698,6.08603774 L0.193207547,2.12528302 L0.193207547,10.0467925 Z" transform="translate(97.569811, 20.286792)"/><path fill="#676767" d="M0.193207547,2.12528302 L8.11471698,6.08603774 L10.7230189,4.73358491 L2.80150943,0.772830189 L0.193207547,2.12528302 Z" transform="translate(97.569811, 20.286792)"/></g><g stroke="#333"><path fill="#333" d="M0.676226415,9.75698113 L3.38113208,8.4045283 L8.59773585,5.79622642 L0.676226415,1.8354717 L0.676226415,9.75698113 Z" transform="translate(91.773585, 23.184906)"/><path fill="#676767" d="M0.676226415,1.8354717 L8.59773585,5.79622642 L11.3026415,4.44377358 L3.38113208,0.483018868 L0.676226415,1.8354717 Z" transform="translate(91.773585, 23.184906)"/></g><g stroke="#333"><path fill="#333" d="M0.193207547,9.56377358 L2.89811321,8.21132075 L8.21132075,5.50641509 L0.193207547,1.54566038 L0.193207547,9.56377358 Z" transform="translate(86.943396, 26.083019)"/><path fill="#676767" d="M0.193207547,1.54566038 L8.21132075,5.50641509 L10.8196226,4.25056604 L2.89811321,0.289811321 L0.193207547,1.54566038 Z" transform="translate(86.943396, 26.083019)"/></g><g stroke="#333"><path fill="#333" d="M0.772830189,9.27396226 L3.38113208,7.92150943 L8.69433962,5.31320755 L0.772830189,1.35245283 L0.772830189,9.27396226 Z" transform="translate(81.147170, 28.981132)"/><path fill="#676767" d="M0.772830189,1.35245283 L8.69433962,5.31320755 L11.3026415,3.96075472 L3.38113208,0 L0.772830189,1.35245283 Z" transform="translate(81.147170, 28.981132)"/></g><g stroke="#333"><path fill="#333" d="M0.289811321,9.95018868 L2.89811321,8.69433962 L8.21132075,5.98943396 L0.289811321,2.02867925 L0.289811321,9.95018868 Z" transform="translate(76.316981, 30.913208)"/><path fill="#676767" d="M0.289811321,2.02867925 L8.21132075,5.98943396 L10.8196226,4.73358491 L2.89811321,0.676226415 L0.289811321,2.02867925 Z" transform="translate(76.316981, 30.913208)"/></g><g stroke="#333"><path fill="#333" d="M0.772830189,9.75698113 L3.47773585,8.4045283 L8.69433962,5.79622642 L0.772830189,1.8354717 L0.772830189,9.75698113 Z" transform="translate(70.520755, 33.811321)"/><path fill="#676767" d="M0.772830189,1.8354717 L8.69433962,5.79622642 L11.3992453,4.44377358 L3.47773585,0.483018868 L0.772830189,1.8354717 Z" transform="translate(70.520755, 33.811321)"/></g><g stroke="#333"><path fill="#333" d="M0.289811321,9.46716981 L2.99471698,8.11471698 L8.30792453,5.50641509 L0.289811321,1.54566038 L0.289811321,9.46716981 Z" transform="translate(65.690566, 36.709434)"/><path fill="#676767" d="M0.289811321,1.54566038 L8.30792453,5.50641509 L10.9162264,4.15396226 L2.99471698,0.193207547 L0.289811321,1.54566038 Z" transform="translate(65.690566, 36.709434)"/></g><g stroke="#333"><path fill="#333" d="M0.869433962,9.17735849 L3.47773585,7.92150943 L8.7909434,5.21660377 L0.869433962,1.25584906 L0.869433962,9.17735849 Z" transform="translate(59.894340, 39.607547)"/><path fill="#676767" d="M0.869433962,1.25584906 L8.7909434,5.21660377 L11.3992453,3.96075472 L3.47773585,0 L0.869433962,1.25584906 Z" transform="translate(59.894340, 39.607547)"/></g><g><path fill="#36A3C9" stroke="#010101" d="M0.0966037736,9.95018868 L0.0966037736,25.7932075 L18.6445283,16.5192453 L18.6445283,0.676226415 L0.0966037736,9.95018868 Z" transform="translate(118.822642, 91.773585)"/><path fill="#50C8EC" d="M13.3313208,13.9109434 L13.3313208,3.38113208 L0.0966037736,9.95018868 L0.0966037736,20.5766038 L13.3313208,13.9109434 Z" transform="translate(118.822642, 91.773585)"/><path fill="url(#linearGradient-18)" d="M18.6445283,16.5192453 L18.6445283,0.676226415 L5.40981132,7.34188679 L0.0966037736,9.95018868" transform="translate(118.822642, 91.773585)"/><path stroke="#333" d="M0.0966037736,9.95018868 L0.0966037736,25.7932075 L18.6445283,16.5192453 L18.6445283,0.676226415 L0.0966037736,9.95018868 Z" transform="translate(118.822642, 91.773585)"/></g><g><path fill="#36A3C9" stroke="#010101" d="M0.676226415,10.1433962 L0.676226415,25.9864151 L19.2241509,16.8090566 L19.2241509,0.869433962 L0.676226415,10.1433962 Z" transform="translate(152.633962, 74.384906)"/><path fill="#50C8EC" d="M13.9109434,14.1041509 L13.9109434,3.57433962 L0.676226415,10.1433962 L0.676226415,20.7698113 L13.9109434,14.1041509 Z" transform="translate(152.633962, 74.384906)"/><path fill="url(#linearGradient-19)" d="M19.2241509,16.8090566 L19.2241509,0.869433962 L5.98943396,7.53509434 L0.676226415,10.1433962" transform="translate(152.633962, 74.384906)"/><path stroke="#333" d="M0.676226415,10.1433962 L0.676226415,25.9864151 L19.2241509,16.8090566 L19.2241509,0.869433962 L0.676226415,10.1433962 Z" transform="translate(152.633962, 74.384906)"/></g><path fill="url(#linearGradient-20)" stroke="#333" d="M76.6067925,93.8022642 L76.6067925,62.0196226 L34.2943396,40.8633962 L34.2943396,83.1758491 L87.1366038,109.645283 L87.1366038,151.957736 L97.7630189,157.270943 L97.7630189,114.958491 L108.29283,120.271698 L108.29283,109.645283 L76.6067925,93.8022642 Z"/><path fill="url(#linearGradient-2)" stroke="#333" d="M185.09283,129.54566 L110.997736,166.544906 L110.997736,124.232453 L185.09283,87.1366038 L185.09283,129.54566 Z"/><path fill="url(#linearGradient-21)" stroke="#333" d="M100.371321,118.919245 L100.371321,161.231698 L110.997736,166.544906 L110.997736,124.232453 L100.371321,118.919245 Z"/><g stroke="#333"><path fill="url(#linearGradient-22)" d="M105.877736,48.1086792 L31.7826415,85.1079245 L31.7826415,53.4218868 L105.877736,16.4226415 L105.877736,48.1086792 Z" transform="translate(79.215094, 23.184906)"/><path fill="url(#linearGradient-23)" d="M1.42108547e-14,37.5788679 L74.0950943,0.483018868 L105.877736,16.4226415 L31.7826415,53.4218868 L1.42108547e-14,37.5788679 Z" transform="translate(79.215094, 23.184906)"/><path fill="url(#linearGradient-24)" d="M47.6256604,34.8739623 L68.7818868,24.3441509 L79.4083019,29.6573585 L58.2520755,40.1871698 L47.6256604,34.8739623 Z" transform="translate(79.215094, 23.184906)"/><path fill="url(#linearGradient-25)" d="M0,37.5788679 L0,69.2649057 L31.7826415,85.1079245 L31.7826415,53.4218868 L0,37.5788679 Z" transform="translate(79.215094, 23.184906)"/></g><path fill="url(#linearGradient-26)" stroke="#333" d="M110.997736,124.232453 L185.09283,87.1366038 L182.387925,85.8807547 L108.29283,122.88 L110.997736,124.232453 Z"/><g stroke="#333"><path fill="#333" d="M31.8792453,0.676226415 L31.8792453,13.9109434 L42.5056604,19.1275472 L42.5056604,5.89283019 L31.8792453,0.676226415 Z" transform="translate(22.218868, 102.400000)"/><path fill="#676767" d="M0.193207547,45.5969811 L0.193207547,54.8709434 L5.40981132,57.4792453 L5.40981132,48.3018868 L0.193207547,45.5969811 Z" transform="translate(22.218868, 102.400000)"/><path fill="#676767" d="M34.5841509,1.93207547 L0.193207547,45.5969811 L5.40981132,48.3018868 L39.8007547,4.63698113 L34.5841509,1.93207547 Z" transform="translate(22.218868, 102.400000)"/><path fill="#676767" d="M5.40981132,48.3018868 L5.40981132,57.4792453 L42.5056604,11.2060377 L42.5056604,5.89283019 L39.8007547,4.63698113 L5.40981132,48.3018868 Z" transform="translate(22.218868, 102.400000)"/></g><g stroke="#333"><path fill="#676767" d="M39.7041509,5.79622642 L29.0777358,11.109434 L71.3901887,32.2656604 L82.0166038,26.9524528 L39.7041509,5.79622642 Z" transform="translate(3.864151, 131.381132)"/><path fill="#676767" d="M7.92150943,0.772830189 L0,4.73358491 L36.9992453,23.2815094 L44.9207547,19.3207547 L7.92150943,0.772830189 Z" transform="translate(3.864151, 131.381132)"/><path fill="#676767" d="M0,4.73358491 L0,25.8898113 L36.9992453,44.4377358 L36.9992453,23.2815094 L0,4.73358491 Z" transform="translate(3.864151, 131.381132)"/><path fill="#676767" d="M29.0777358,11.3026415 L29.0777358,48.3984906 L71.3901887,69.554717 L71.3901887,32.4588679 L29.0777358,11.3026415 Z" transform="translate(3.864151, 131.381132)"/><path fill="#676767" d="M82.0166038,26.9524528 L71.3901887,32.2656604 L71.3901887,69.2649057 L82.0166038,63.9516981 L82.0166038,26.9524528 Z" transform="translate(3.864151, 131.381132)"/><g><path fill="url(#linearGradient-27)" d="M0.869433962,5.79622642 L0.869433962,13.7177358 L19.4173585,22.9916981 L19.4173585,17.6784906 L0.869433962,5.79622642 Z" transform="translate(3.864151, 131.381132) translate(70.520755, 53.132075)"/><path fill="url(#linearGradient-28)" d="M19.4173585,17.6784906 L19.4173585,22.9916981 L35.2603774,26.9524528 L35.2603774,22.9916981 L19.4173585,17.6784906 Z" transform="translate(3.864151, 131.381132) translate(70.520755, 53.132075)"/><path fill="url(#linearGradient-29)" d="M35.2603774,22.9916981 L35.2603774,26.9524528 L45.8867925,21.7358491 L45.8867925,17.6784906 L35.2603774,22.9916981 Z" transform="translate(3.864151, 131.381132) translate(70.520755, 53.132075)"/><path fill="url(#linearGradient-30)" d="M29.9471698,12.4618868 L19.4173585,17.6784906 L35.2603774,22.9916981 L45.8867925,17.6784906 L29.9471698,12.4618868 Z" transform="translate(3.864151, 131.381132) translate(70.520755, 53.132075)"/><path fill="url(#linearGradient-31)" d="M11.4958491,0.579622642 L0.869433962,5.79622642 L19.4173585,17.6784906 L29.9471698,12.4618868 L11.4958491,0.579622642 Z" transform="translate(3.864151, 131.381132) translate(70.520755, 53.132075)"/></g><g><path fill="url(#linearGradient-32)" d="M0.869433962,6.18264151 L0.869433962,14.1041509 L19.4173585,20.6732075 L19.4173585,15.4566038 L0.869433962,6.18264151 Z" transform="translate(3.864151, 131.381132) translate(70.520755, 28.981132)"/><path fill="url(#linearGradient-33)" d="M19.4173585,15.4566038 L19.4173585,20.6732075 L35.2603774,32.6520755 L35.2603774,28.6913208 L19.4173585,15.4566038 Z" transform="translate(3.864151, 131.381132) translate(70.520755, 28.981132)"/><path fill="url(#linearGradient-34)" d="M35.2603774,28.6913208 L35.2603774,32.6520755 L45.8867925,27.3388679 L45.8867925,23.3781132 L35.2603774,28.6913208 Z" transform="translate(3.864151, 131.381132) translate(70.520755, 28.981132)"/><path fill="url(#linearGradient-35)" d="M11.4958491,0.869433962 L0.869433962,6.18264151 L19.4173585,15.4566038 L29.9471698,10.1433962 L11.4958491,0.869433962 Z" transform="translate(3.864151, 131.381132) translate(70.520755, 28.981132)"/><path fill="url(#linearGradient-36)" d="M29.9471698,10.1433962 L19.4173585,15.4566038 L35.2603774,28.6913208 L45.8867925,23.3781132 L29.9471698,10.1433962 Z" transform="translate(3.864151, 131.381132) translate(70.520755, 28.981132)"/></g><g><path fill="url(#linearGradient-37)" d="M0.193207547,2.60830189 L0.193207547,45.0173585 L53.0354717,71.3901887 L53.0354717,29.0777358 L0.193207547,2.60830189 Z" transform="translate(3.864151, 131.381132) translate(18.354717, 5.796226)"/><path fill="url(#linearGradient-38)" d="M53.0354717,29.0777358 L53.0354717,71.3901887 L58.3486792,68.7818868 L58.3486792,26.469434 L53.0354717,29.0777358 Z" transform="translate(3.864151, 131.381132) translate(18.354717, 5.796226)"/><path fill="url(#linearGradient-39)" d="M0.193207547,2.60830189 L5.40981132,0 L58.3486792,26.469434 L53.0354717,29.0777358 L0.193207547,2.60830189 Z" transform="translate(3.864151, 131.381132) translate(18.354717, 5.796226)"/></g></g><path fill="url(#linearGradient-40)" stroke="#333" d="M44.8241509,46.1766038 L55.450566,40.8633962 L65.9803774,46.1766038 L55.450566,51.4898113 L44.8241509,46.1766038 Z"/></g></g></svg>