<svg xmlns="http://www.w3.org/2000/svg" xmlns:xlink="http://www.w3.org/1999/xlink" width="256" height="256" preserveAspectRatio="xMidYMid" version="1.1" viewBox="0 0 256 256"><defs><linearGradient id="linearGradient-1" x1="1.354%" x2="75.58%" y1="144.125%" y2="24.63%"><stop offset="2%" stop-color="#765AF8"/><stop offset="38%" stop-color="#B345F1"/><stop offset="76%" stop-color="#FA3293"/><stop offset="94%" stop-color="#FF318C"/></linearGradient><linearGradient id="linearGradient-2" x1="60.023%" x2="25.411%" y1="98.52%" y2="6.722%"><stop offset="18%" stop-color="#765AF8"/><stop offset="24%" stop-color="#8655F6"/><stop offset="34%" stop-color="#9F4CF3"/><stop offset="44%" stop-color="#AE47F2"/><stop offset="52%" stop-color="#B345F1"/></linearGradient><linearGradient id="linearGradient-3" x1="87.772%" x2="17.941%" y1="80.797%" y2="35.498%"><stop offset="2%" stop-color="#765AF8"/><stop offset="38%" stop-color="#B345F1"/></linearGradient></defs><g><path fill="url(#linearGradient-1)" d="M0,49.2 L43.6,0 L132.8,19.2 L144.8,55.6 L136,118.8 L100.537692,100.651642 L102.4,151.2 L102.4,195.2 L24.4,196 L0,49.2 Z"/><polygon fill="url(#linearGradient-2)" points="80.8 150 85.6 89.6 158 15.2 222.8 27.2 256 110 221.2 144.4 164.8 135.2 129.2 172"/><polygon fill="url(#linearGradient-3)" points="158 15.2 54 107.6 74 226 160.4 256 256 198.8"/><rect width="160" height="160" x="48" y="48" fill="#000"/><path fill="#FFF" d="M63.2,178 L123.2,178 L123.2,188 L63.2,188 L63.2,178 Z M62.4,68.8 L89.6,68.8 C105.6,68.8 115.2,78 115.2,91.6 C115.2,106.8 103.2,114.8 88.4,114.8 L77.2,114.8 L77.2,134.8 L62.4,134.8 L62.4,68.8 L62.4,68.8 Z M88.8,102.8 C95.78,102.8 100.4,98 100.4,92.4 C100.4,86 96,82.4 88.4,82.4 L77.2,82.4 L77.2,102.8 L88.8,102.8 Z M118.8,125.6 L127.6,115.2 C133.6,120 140,123.2 147.6,123.2 C153.6,123.2 157.2,120.8 157.2,116.8 C157.2,113.2 154.8,111.2 143.6,108.4 C130,104.8 121.6,101.2 121.6,88 L121.6,87.6 C121.6,75.6 131.2,67.6 144.8,67.6 C153.771202,67.5615535 162.498743,70.5176559 169.6,76 L162,87.2 C156,83.2 150.4,80.8 144.8,80.8 C139.2,80.8 136.4,83.2 136.4,86.8 C136.4,91.2 139.2,92.8 150.8,95.6 C164.4,99.2 172,104 172,115.6 C172,128.8 162,136.4 147.6,136.4 C136.984542,136.54349 126.703599,132.688136 118.8,125.6 Z"/></g></svg>