<svg xmlns="http://www.w3.org/2000/svg" xmlns:xlink="http://www.w3.org/1999/xlink" width="256" height="247" preserveAspectRatio="xMidYMid" version="1.1" viewBox="0 0 256 247"><g><polygon fill="#468BCC" points="16.696 131.339 0 74.574 52.313 0 153.6 131.339"/><polygon fill="#4BA8FF" points="0 74.574 52.313 0 128 23.374 153.6 131.339"/><polygon fill="#468BCC" points="52.313 0 128 23.374 203.687 0 153.6 131.339"/><polygon fill="#468BCC" points="128 23.374 203.687 0 256 74.574 153.6 131.339"/><polygon fill="#4BA8FF" points="203.687 0 256 74.574 239.304 131.339 153.6 131.339"/><polygon fill="#468BCC" points="256 74.574 239.304 131.339 128 229.287 153.6 131.339"/><polygon fill="#468BCC" points="239.304 131.339 128 229.287 16.696 131.339 153.6 131.339"/><polygon fill="#468BCC" points="128 229.287 16.696 131.339 0 74.574 153.6 131.339"/><polygon fill="#468BCC" points="16.696 131.339 0 74.574 153.6 131.339"/><polygon fill="#FFF" points="77.913 159.165 96.835 171.409 66.783 194.783"/><path fill="#082744" d="M77.0631413,158.899623 L65.9327065,194.517014 C65.6725062,195.349655 66.6406909,196.021047 67.3292828,195.485475 L97.3814567,172.111562 C97.8652611,171.73527 97.8330961,170.994079 97.3185124,170.661113 L78.3967733,158.417635 C77.9022335,158.097639 77.238837,158.337397 77.0631413,158.899623 Z M78.4132452,160.549398 L95.29856,171.475256 L68.4806678,192.33369 L78.4132452,160.549398 Z"/><polygon fill="#FFF" points="178.087 159.165 159.165 171.409 189.217 194.783"/><path fill="#082744" d="M177.603227,158.417635 L158.681488,170.661113 C158.166904,170.994079 158.134739,171.73527 158.618543,172.111562 L188.670717,195.485475 C189.359309,196.021047 190.327494,195.349655 190.067293,194.517014 L178.936859,158.899623 C178.761163,158.337397 178.097766,158.097639 177.603227,158.417635 Z M177.586532,160.549398 L187.51911,192.33369 L160.701217,171.475256 L177.586532,160.549398 Z"/><polygon fill="#4BA8FF" points="66.783 61.217 103.513 15.805 152.487 15.805 128 94.609"/><polygon fill="#468BCC" points="103.513 15.805 152.487 15.805 189.217 61.217 128 94.609"/><polygon fill="#166EBF" points="152.487 15.805 189.217 61.217 189.217 155.826 128 94.609"/><polygon fill="#0B457F" points="189.217 61.217 189.217 155.826 152.487 180.313 128 94.609"/><polygon fill="#0C3861" points="189.217 155.826 152.487 180.313 128 245.983 128 94.609"/><polygon fill="#166EBF" points="152.487 180.313 152.487 233.739 128 245.983 103.513 180.313 128 94.609"/><polygon fill="#4BA8FF" points="128 245.983 103.513 233.739 103.513 180.313 66.783 155.826 128 94.609"/><polygon fill="#166EBF" points="103.513 180.313 66.783 155.826 66.783 61.217 128 94.609"/><polygon fill="#468BCC" points="66.783 155.826 66.783 61.217 128 94.609"/><path fill="#082744" d="M152.486957,14.9147826 L103.513043,14.9147826 C103.244216,14.9147826 102.989778,15.036234 102.820721,15.2452503 L66.0902858,60.6574243 C65.9621041,60.8159035 65.8921739,61.0135624 65.8921739,61.2173913 L65.8921739,155.826087 L65.8937083,155.878402 C65.9100212,156.156125 66.0555382,156.411543 66.2886843,156.566973 L102.622609,180.789649 L102.622609,233.73913 C102.622609,234.076402 102.813164,234.384727 103.114829,234.53556 L127.601785,246.779038 C127.852467,246.904379 128.147533,246.904379 128.398215,246.779038 L152.885171,234.53556 L152.927502,234.512955 C153.204552,234.355297 153.377391,234.060342 153.377391,233.73913 L153.377391,180.789426 L189.711316,156.566973 C189.959033,156.401828 190.107826,156.123807 190.107826,155.826087 L190.107826,61.2173913 C190.107826,61.0135624 190.037896,60.8159035 189.909714,60.6574243 L153.179279,15.2452503 C153.010222,15.036234 152.755784,14.9147826 152.486957,14.9147826 Z M152.061774,16.6956522 L188.326957,61.5326052 L188.326957,155.349259 L151.993032,179.572157 L151.950354,179.602453 C151.728324,179.770079 151.596522,180.032837 151.596522,180.313043 L151.596522,233.188842 L128,244.987103 L104.403478,233.188842 L104.403478,180.313043 L104.401944,180.260728 C104.385631,179.983006 104.240114,179.727588 104.006968,179.572157 L67.6730435,155.349482 L67.6730435,61.5323826 L103.938003,16.6956522 L152.061774,16.6956522 Z"/><polygon fill="#FFF" points="80.139 86.817 109.078 95.722 80.139 106.852"/><polygon fill="#FFF" points="175.861 86.817 146.922 95.722 175.861 106.852"/></g></svg>