<svg xmlns="http://www.w3.org/2000/svg" xmlns:xlink="http://www.w3.org/1999/xlink" width="256" height="189" preserveAspectRatio="xMidYMid" version="1.1" viewBox="0 0 256 189"><defs><linearGradient id="linearGradient-1" x1="50%" x2="50%" y1="82.799%" y2="-5.781%"><stop offset="0%" stop-color="#2684FF"/><stop offset="82%" stop-color="#0052CC"/></linearGradient></defs><g><circle cx="128" cy="128.433" r="59.865" fill="url(#linearGradient-1)"/><path fill="#2684FF" d="M1.61622537,59.2547248 L33.7997412,97.3740064 C34.9893298,98.7728467 36.6899306,99.6365583 38.5211977,99.7719689 C40.3524648,99.9073795 42.1616074,99.3031911 43.544004,98.0945328 C95.6620856,51.3632444 160.200671,51.3632444 212.455996,98.0945328 C213.838393,99.3031911 215.647535,99.9073795 217.478802,99.7719689 C219.310069,99.6365583 221.01067,98.7728467 222.200259,97.3740064 L254.383775,59.2547248 C256.815838,56.3704526 256.463336,52.0637955 253.594627,49.6133944 C178.110901,-16.5377981 78.0263424,-16.5377981 2.40537342,49.6133944 C-0.463335731,52.0637955 -0.815837919,56.3704526 1.61622537,59.2547248 Z"/></g></svg>