<svg xmlns="http://www.w3.org/2000/svg" xmlns:xlink="http://www.w3.org/1999/xlink" width="256" height="257" preserveAspectRatio="xMidYMid" version="1.1" viewBox="0 0 256 257"><g><path fill="#00B3E3" d="M99.4047197,111.84937 L60.0761099,128.270613 L0,93.6321353 L34.6384778,34.6384778 L94.1733615,69.2769556 L99.4047197,111.84937 Z M157.358575,144.924764 L162.367865,187.264271 L221.902748,221.902748 L256,162.909091 L195.92389,128.270613 L157.358575,144.924764 Z"/><path fill="#FFC843" d="M128.270613,160.204261 L162.367865,187.264271 L162.367865,256.541226 L94.1733615,256.541226 L94.1733615,187.264271 L128.270613,160.204261 Z M162.367865,69.2769556 L162.367865,0 L94.1733615,0 L94.1733615,69.2769556 L128.270613,96.683757 L162.367865,69.2769556 Z"/><path fill="#FF4338" d="M157.358575,113.343892 L162.367865,69.2769556 L221.902748,34.6384778 L256,93.6321353 L195.92389,128.270613 L157.358575,113.343892 Z M60.0761099,128.270613 L0,162.909091 L34.0972516,221.902748 L94.1733615,187.264271 L104.10909,144.845289 L60.0761099,128.270613 Z"/><path fill="#002F32" d="M162.367865,108.786469 L195.92389,128.270613 L162.367865,147.754757 L155.767122,128.270613 L162.367865,108.786469 Z M94.1733615,108.786469 L60.0761099,128.270613 L94.1733615,147.754757 L101.752682,128.270613 L94.1733615,108.786469 Z"/><path fill="#FF350F" d="M128.270613,88.7610994 L162.367865,69.2769556 L162.367865,108.786469 L139.869209,104.839133 L128.270613,88.7610994 Z M94.1733615,147.754757 L94.1733615,187.264271 L128.270613,167.780127 L116.327709,149.284091 L94.1733615,147.754757 Z"/><path fill="#008C3C" d="M162.367865,147.754757 L162.367865,187.264271 L128.270613,167.780127 L141.97001,152.779358 L162.367865,147.754757 Z M128.270613,88.7610994 L94.1733615,69.2769556 L94.1733615,108.786469 L116.544327,105.107543 L128.270613,88.7610994 Z"/><polygon fill="#00250D" points="128.271 88.761 94.173 108.786 94.173 147.755 128.271 167.78 162.368 147.755 162.368 108.786"/></g></svg>