<svg xmlns="http://www.w3.org/2000/svg" xmlns:xlink="http://www.w3.org/1999/xlink" width="256" height="304" preserveAspectRatio="xMidYMid" version="1.1" viewBox="0 0 256 304"><defs><linearGradient id="linearGradient-1" x1="-26.26%" x2="99.866%" y1="20.882%" y2="90.01%"><stop offset="0%" stop-color="#231F20" stop-opacity=".16"/><stop offset="100%" stop-color="#231F20" stop-opacity="0"/></linearGradient><radialGradient id="radialGradient-2" cx="10.535%" cy=".169%" r="142.584%" fx="10.535%" fy=".169%" gradientTransform="translate(0.105347,0.001688),scale(1.000000,0.841682),translate(-0.105347,-0.001688)"><stop offset="0%" stop-color="#FFF" stop-opacity=".1"/><stop offset="100%" stop-color="#FFF" stop-opacity="0"/></radialGradient></defs><g><ellipse cx="128" cy="156.841" fill="#4285F4" rx="127.271" ry="125.489"/><path fill="#263238" d="M128,280.303797 C58.0860759,280.303797 1.29620253,224.648101 0.729113924,155.787342 L0.729113924,156.759494 C0.729113924,226.025316 57.6810127,282.248101 128,282.248101 C198.318987,282.248101 255.270886,226.025316 255.270886,156.759494 L255.270886,155.787342 C254.703797,224.648101 197.913924,280.303797 128,280.303797 Z" opacity=".2"/><path fill="#FFF" d="M128,33.3772152 C197.913924,33.3772152 254.703797,89.0329114 255.270886,157.893671 L255.270886,156.921519 C255.270886,87.6556962 198.318987,31.4329114 128,31.4329114 C57.6810127,31.4329114 0.729113924,87.5746835 0.729113924,156.840506 L0.729113924,157.812658 C1.29620253,89.0329114 58.0860759,33.3772152 128,33.3772152 Z" opacity=".2"/><polygon fill="#424242" points="97.782 61.084 97.782 98.592 128 139.18 158.218 97.539 158.218 61.084 193.944 61.084 228.861 .648 27.22 .648 62.056 61.084"/><path fill="#9E9E9E" d="M90.0860759,61.0835443 L62.0556962,61.0835443 L72.0202532,78.3392405 L90.0860759,78.3392405 L90.0860759,61.0835443 Z M165.913924,78.3392405 L183.979747,78.3392405 L193.944304,61.0835443 L165.913924,61.0835443 L165.913924,78.3392405 Z"/><polygon fill="#424242" points="158.218 242.633 158.218 217.924 128 176.446 97.782 217.924 97.782 242.633 62.137 242.633 27.139 303.068 228.861 303.068 194.025 242.633"/><polygon fill="#263238" points="158.218 94.461 128 136.182 97.782 95.433 97.782 98.592 128 139.18 158.218 97.539" opacity=".2"/><polygon fill="#FFF" points="27.22 .648 228.78 .648 227.565 2.754 28.435 2.754" opacity=".2"/><path fill="#263238" d="M97.7822785,221.002532 L128.081013,179.443038 L158.217722,221.002532 L158.217722,217.924051 L128.081013,176.44557 L97.7822785,217.843038 L97.7822785,221.002532 Z M228.779747,302.987342 L27.2202532,302.987342 L28.435443,300.8 L227.564557,300.8 L228.779747,302.987342 Z" opacity=".2"/><path fill="url(#linearGradient-1)" d="M228.779747,302.987342 L227.564557,300.8 L203.017722,258.187342 C229.022785,239.473418 247.493671,211.281013 253.326582,178.794937 L135.696203,59.6253165 L119.898734,245.549367 L175.716456,302.987342 L228.860759,303.068354 L228.779747,302.987342 Z"/><polygon fill="#E8E8E8" points="135.696 59.625 78.987 173.124 120.142 173.124 119.899 245.549 177.337 131.403 135.453 131.403"/><polygon fill="#FFF" points="135.696 59.625 80.041 171.099 120.142 171.099 119.899 243.524 176.284 131.403 135.453 131.403"/><path fill="#9E9E9E" d="M97.7822785,61.0835443 L62.0556962,61.0835443 L72.0202532,78.3392405 L97.7822785,78.3392405 L97.7822785,61.0835443 Z M158.217722,78.3392405 L183.979747,78.3392405 L193.944304,61.0835443 L158.217722,61.0835443 L158.217722,78.3392405 Z"/><path fill="#263238" d="M158.217722,76.3139241 L158.217722,78.3392405 L183.979747,78.3392405 L185.194937,76.2329114 L158.217722,76.3139241 Z M97.7822785,76.3139241 L70.8050633,76.2329114 L72.0202532,78.3392405 L97.7822785,78.3392405 L97.7822785,76.3139241 Z" opacity=".3"/><path fill="url(#radialGradient-2)" d="M255.270886,157.812658 L255.270886,156.840506 C255.270886,113.417722 232.83038,75.0987342 198.805063,52.5772152 L228.860759,0.648101266 L27.2202532,0.648101266 L57.1949367,52.5772152 C23.1696203,75.0987342 0.729113924,113.417722 0.729113924,156.840506 L0.729113924,157.812658 C1.05316456,199.048101 21.6303797,235.58481 53.0632911,258.268354 L28.435443,300.8 L27.2202532,302.987342 L27.1392405,303.068354 L228.779747,303.068354 L228.698734,302.987342 L227.483544,300.8 L202.936709,258.187342 C234.450633,235.58481 254.946835,199.129114 255.270886,157.812658 Z"/></g></svg>