<svg xmlns="http://www.w3.org/2000/svg" xmlns:xlink="http://www.w3.org/1999/xlink" width="256" height="266" preserveAspectRatio="xMidYMid" version="1.1" viewBox="0 0 256 266"><g><path fill="#1159CC" d="M221.101749,0 L255.996276,20.4099019 L197.80928,54.2496961 L197.809,54.29 L255.996276,20.4099019 L255.996276,44.663227 L177.863239,236.260077 L127.976,265.06 L127.976049,265.063662 L127.973,265.061 L127.970527,265.063662 L127.97,265.06 L78.5637649,236.480963 L0,45.4142407 L0,20.4099019 L34.9000488,0 L93.1312219,34.1490351 L92.932,34.263 L93.0870447,34.3257442 L93.0870447,57.3862827 L127.976049,138.981713 L127.976,166.242 L127.981571,166.239093 L127.981571,138.981713 L162.914753,57.3862827 L162.914753,34.1048578 L162.95893,34.1048578 L221.101749,0 Z M71.579,46.548 L58.192518,54.2496961 L58.192,54.29 L71.579,46.548 Z"/><polygon fill="#127EFF" points="221.102 0 162.959 34.105 162.915 34.105 162.915 57.386 127.982 138.982 127.982 166.239 104.733 179.757 58.193 74.792 58.193 54.25 93.131 34.149 34.9 0 0 20.41 0 45.414 78.564 236.481 127.976 265.064 127.976 193.276 151.269 179.757 150.959 179.581 197.809 74.792 197.809 54.25 255.996 20.41"/></g></svg>