<svg xmlns="http://www.w3.org/2000/svg" xmlns:xlink="http://www.w3.org/1999/xlink" width="256" height="254" preserveAspectRatio="xMidYMid" version="1.1" viewBox="0 0 256 254"><g><polygon fill="#1C70E7" points="79.072 0 179.021 0 174.221 59.502 223.008 39.059 255.999 131.717 201.587 147.528 235.712 193.903 156.397 253.098 125.922 205.676 96.343 253.098 15.396 193.903 53.683 147.528 0 131.717 30.366 39.059 82.67 59.502"/><polygon fill="#FFF" points="107.425 27.406 149.295 27.406 145.702 100.257 207.051 75.074 221.631 113.581 156.277 132.4 197.736 189.34 164.528 214.138 125.253 154.567 89.015 214.138 54.274 189.34 100.027 132.4 33.982 113.581 47.322 75.074 111.826 100.257"/></g></svg>