<svg xmlns="http://www.w3.org/2000/svg" xmlns:xlink="http://www.w3.org/1999/xlink" width="256" height="209" preserveAspectRatio="xMidYMid" version="1.1" viewBox="0 0 256 209"><defs><linearGradient id="linearGradient-1" x1="0%" x2="100%" y1="50%" y2="50%"><stop offset="0%" stop-color="#2A3B8F"/><stop offset="100%" stop-color="#29ABE2"/></linearGradient><linearGradient id="linearGradient-2" x1="0%" x2="100%" y1="50%" y2="50%"><stop offset="0%" stop-color="#2A3B8F"/><stop offset="100%" stop-color="#29ABE2"/></linearGradient><linearGradient id="linearGradient-3" x1="100%" x2="0%" y1="50%" y2="50%"><stop offset="0%" stop-color="#B4D44E"/><stop offset="100%" stop-color="#E7F716"/></linearGradient><linearGradient id="linearGradient-4" x1="100%" x2="0%" y1="50%" y2="50%"><stop offset="0%" stop-color="#B4D44E"/><stop offset="100%" stop-color="#E7F716"/></linearGradient></defs><g><polygon fill="#166DA5" points="255.997 104.029 228.192 150.849 189.201 103.389 228.192 57.208"/><polygon fill="#8FDB69" points="225.156 158.839 182.809 108.183 157.401 150.69 196.871 208.377"/><polygon fill="#166DA5" points="224.676 48.898 182.809 99.714 157.401 57.208 196.871 .16"/><polygon fill="url(#linearGradient-1)" points="96.997 48.898 224.676 48.898 196.552 .16 125.122 .16" opacity=".95"/><polyline fill="url(#linearGradient-2)" points="182.809 99.874 253.44 99.874 228.032 57.048 157.241 57.048" opacity=".95"/><polygon fill="url(#linearGradient-3)" points="225.156 158.999 96.838 158.999 124.962 207.738 196.871 207.738" opacity=".95"/><polygon fill="#010101" points="124.962 207.738 64.878 103.869 125.761 0 59.924 0 0 103.869 59.924 207.738"/><polyline fill="url(#linearGradient-4)" points="182.809 108.024 253.44 108.024 228.032 150.849 157.241 150.849" opacity=".95"/></g></svg>