<svg xmlns="http://www.w3.org/2000/svg" xmlns:xlink="http://www.w3.org/1999/xlink" width="256" height="213" preserveAspectRatio="xMidYMid" version="1.1" viewBox="0 0 256 213"><defs><rect id="path-1" width="256.003" height="210.939" x="0" y=".328"/><linearGradient id="linearGradient-3" x1="12.932%" x2="71.216%" y1="9.052%" y2="81.625%"><stop offset="0%" stop-color="#67337A"/><stop offset="100%" stop-color="#723986"/></linearGradient><linearGradient id="linearGradient-4" x1="91.997%" x2="29.654%" y1="52.448%" y2="52.448%"><stop offset="0%" stop-color="#623274" stop-opacity="0"/><stop offset="100%" stop-color="#542C65"/></linearGradient><linearGradient id="linearGradient-5" x1="91.997%" x2="29.654%" y1="52.448%" y2="52.448%"><stop offset="0%" stop-color="#623274" stop-opacity="0"/><stop offset="100%" stop-color="#542C65"/></linearGradient><linearGradient id="linearGradient-6" x1="91.675%" x2="56.225%" y1="5.599%" y2="79.874%"><stop offset="0%" stop-color="#8A519F"/><stop offset="100%" stop-color="#8A53A0"/></linearGradient><linearGradient id="linearGradient-7" x1="63.479%" x2="0%" y1="48.225%" y2="48.225%"><stop offset="0%" stop-color="#8A529F" stop-opacity=".1"/><stop offset="100%" stop-color="#542C65"/></linearGradient><linearGradient id="linearGradient-8" x1="24.699%" x2="80.097%" y1="31.401%" y2="66.964%"><stop offset="0%" stop-color="#5C2E6D"/><stop offset="100%" stop-color="#6D377B"/></linearGradient><linearGradient id="linearGradient-9" x1="12.346%" x2="81.65%" y1="34.458%" y2="53.652%"><stop offset="0%" stop-color="#612E74"/><stop offset="100%" stop-color="#7F4395"/></linearGradient><linearGradient id="linearGradient-10" x1="100%" x2="100%" y1="0%" y2="69.36%"><stop offset="0%" stop-color="#582C6A"/><stop offset="100%" stop-color="#743983"/></linearGradient><linearGradient id="linearGradient-11" x1="50%" x2="19.624%" y1="74.788%" y2="71.707%"><stop offset="0%" stop-color="#623274" stop-opacity="0"/><stop offset="100%" stop-color="#542C65"/></linearGradient><linearGradient id="linearGradient-12" x1="0%" x2="0%" y1="0%" y2="100%"><stop offset="0%" stop-color="#723A85"/><stop offset="100%" stop-color="#8C519C"/></linearGradient><linearGradient id="linearGradient-13" x1="0%" x2="62.291%" y1="35.927%" y2="46.718%"><stop offset="0%" stop-color="#66397A"/><stop offset="100%" stop-color="#9F69AB"/></linearGradient><linearGradient id="linearGradient-14" x1="72%" x2="0%" y1="48.225%" y2="48.225%"><stop offset="0%" stop-color="#623274" stop-opacity="0"/><stop offset="100%" stop-color="#542C65"/></linearGradient><linearGradient id="linearGradient-15" x1="50%" x2="50%" y1="21.039%" y2="78.192%"><stop offset="0%" stop-color="#5D306E"/><stop offset="100%" stop-color="#9F6AAA"/></linearGradient></defs><g><mask id="mask-2" fill="#fff"><use xlink:href="#path-1"/></mask><polygon fill="#5B2E6E" points="0 139.993 0 .328 64.102 70.412 128.481 .328 192.002 70.049 256.003 .328 256.003 140.315 192.721 211.267 128.481 141.274 64.24 211.267" mask="url(#mask-2)"/><path fill="url(#linearGradient-3)" d="M32.1221931,105.797705 C38.7765006,98.512714 60.1912961,75.0719906 64.240423,70.6387943 C56.1038574,61.7355024 13.2755878,14.8601181 7.10542736e-15,0.328353673 C0.809825391,2.98906216 28.8657174,95.1061107 32.1221931,105.797705 Z" mask="url(#mask-2)"/><polygon fill="url(#linearGradient-4)" points="16.91 -2.999 31.948 28.267 32.532 113.478 6.644 113.478" mask="url(#mask-2)" transform="translate(19.588113, 55.239148) rotate(-17.000000) translate(-19.588113, -55.239148)"/><polygon fill="url(#linearGradient-5)" points="29.723 60.734 60.405 70.816 57.583 111.71 37.174 114.427" mask="url(#mask-2)" transform="translate(45.064179, 87.580270) rotate(-125.000000) translate(-45.064179, -87.580270)"/><polygon fill="url(#linearGradient-6)" points="191.762 70.318 256.003 140.315 256.003 .328" mask="url(#mask-2)"/><polygon fill="url(#linearGradient-7)" points="223.557 50.902 243.314 50.411 237.843 126.386 217.841 145.701" mask="url(#mask-2)" transform="translate(230.577226, 98.056077) rotate(-46.000000) translate(-230.577226, -98.056077)"/><polygon fill="url(#linearGradient-8)" points="192.721 211.267 256.003 140.315 168.751 44.434" mask="url(#mask-2)"/><polygon fill="url(#linearGradient-9)" points="128.481 141.274 192.721 211.267 168.751 44.434" mask="url(#mask-2)"/><polygon fill="url(#linearGradient-10)" points="64.24 211.267 128.481 141.274 128.481 .328" mask="url(#mask-2)"/><polygon fill="url(#linearGradient-11)" points="64.24 211.267 89.361 183.896 128.481 41.504 128.481 .328" mask="url(#mask-2)"/><polygon fill="url(#linearGradient-12)" points="128.481 141.274 168.751 44.434 128.481 .328" mask="url(#mask-2)"/><path fill="url(#linearGradient-13)" d="M31.6408053,105.661555 C33.8399271,112.86607 64.2448184,211.267056 64.2448184,211.267056 L128.480846,0.328353673 L31.6408053,105.661555 Z" mask="url(#mask-2)"/><polygon fill="url(#linearGradient-14)" points="41.813 102.192 70.766 85.248 70.519 196.08 45.407 210.828" mask="url(#mask-2)" transform="translate(56.289431, 148.037903) rotate(-17.000000) translate(-56.289431, -148.037903)"/><polygon fill="url(#linearGradient-15)" points="0 140.775 64.24 211.267 .003 .328" mask="url(#mask-2)"/></g></svg>